<?xml version="1.0" encoding="UTF-8"?>
<svg width="120px" height="120px" viewBox="0 0 120 120" version="1.1" xmlns="http://www.w3.org/2000/svg" xmlns:xlink="http://www.w3.org/1999/xlink">
    <!-- Generator: Sketch 48.2 (47327) - http://www.bohemiancoding.com/sketch -->
    <title>accept-payment</title>
    <desc>Created with Sketch.</desc>
    <defs>
        <circle id="path-1" cx="60" cy="60" r="60"></circle>
        <linearGradient x1="49.9945465%" y1="100%" x2="49.9945465%" y2="0.00354275865%" id="linearGradient-3">
            <stop stop-color="#808080" stop-opacity="0.25" offset="0%"></stop>
            <stop stop-color="#808080" stop-opacity="0.12" offset="54%"></stop>
            <stop stop-color="#808080" stop-opacity="0.1" offset="100%"></stop>
        </linearGradient>
        <linearGradient x1="98172%" y1="45426%" x2="98172%" y2="31675%" id="linearGradient-4">
            <stop stop-color="#808080" stop-opacity="0.25" offset="0%"></stop>
            <stop stop-color="#808080" stop-opacity="0.12" offset="54%"></stop>
            <stop stop-color="#808080" stop-opacity="0.1" offset="100%"></stop>
        </linearGradient>
    </defs>
    <g id="Desktop-HD" stroke="none" stroke-width="1" fill="none" fill-rule="evenodd" transform="translate(-118.000000, -800.000000)">
        <g id="accept-payment" transform="translate(118.000000, 800.000000)">
            <mask id="mask-2" fill="white">
                <use xlink:href="#path-1"></use>
            </mask>
            <use id="Mask" fill-opacity="0.45" fill="#ED953E" xlink:href="#path-1"></use>
            <g id="undraw_credit_card_payment_12va" mask="url(#mask-2)" fill-rule="nonzero">
                <g transform="translate(-5.000000, 24.000000)">
                    <path d="M10.7683911,44.0222233 C9.0525278,44.5821015 7.45105543,45.9372355 7.01865789,47.8168269 C6.527921,49.9763574 7.65810293,52.1587401 7.81939407,54.3731158 C8.34673605,61.6412499 -1.23235654,66.7692779 0.133470605,73.9117251 C0.676827302,76.7465374 2.87084445,78.8363688 5.03397606,80.5559949 C8.4965881,83.3108246 12.337834,85.7434385 16.5874553,86.431289 C23.0436768,87.4744908 29.7904511,84.4054437 36.0670789,86.3455933 C41.1288755,87.9098247 45.0021508,92.4962562 50.0296301,94.1884597 C53.8571491,95.4773223 57.9786526,94.9688615 61.9583115,94.4478319 C64.0985649,94.1678927 66.3474897,93.8433919 68.0782237,92.4551222 C71.3006149,89.8705413 71.4950794,84.7676507 73.6502037,81.1101601 C76.9755467,75.4645304 84.2668216,74.361913 90.3810143,75.4588173 C96.495207,76.5557217 102.428662,79.2602766 108.622929,79.0317548 C109.946431,78.9849079 111.304251,78.7895218 112.457311,78.0891026 C113.860887,77.2367165 114.810331,75.7364713 115.648817,74.2510799 C120.874192,64.9959492 123.78544,54.2302897 123.992488,43.3926459 C124.027949,41.5199101 123.967322,39.5660492 123.151715,37.9081239 C122.122197,35.8160073 120.063161,34.567136 118.004125,33.7238908 C113.076166,31.7106142 107.632303,31.3849707 102.801576,29.0997532 C98.1424357,26.8979462 94.3675366,23.0347861 90.3112359,19.7303616 C82.266125,13.1660744 72.8094307,8.6230621 62.9123314,6.56065334 C60.5821891,6.07504463 58.1639658,5.72769157 55.8486944,6.28871246 C53.181099,6.93542901 50.8818422,8.73046732 48.8147989,10.6614761 C43.3137413,15.8032154 38.9062606,22.1424086 33.8387445,27.7754697 C30.3668582,31.6321749 26.5582533,35.1726105 22.4579954,38.3548839 C20.5785532,39.8139953 18.5881519,41.5461901 16.4982304,42.6248128 C14.5867587,43.6108841 12.789678,43.362938 10.7683911,44.0222233 Z" id="Shape" fill="#6C63FF" opacity="0.1"></path>
                    <path d="M116.380541,47.64475 C113.858265,47.1182627 109.083136,46.1305266 103.678585,45.0363485 C95.6772347,43.4168275 93.5894774,49.5469718 93.5894774,49.5469718 C93.5894774,52.6692708 83.1564233,65.6208601 83.1564233,65.6208601 L80.0448509,58.6620705 C80.5230574,58.7357328 81.0116647,58.7029018 81.4756697,58.5659294 C83.2573143,58.0348638 84.1378182,56.0284891 84.4232941,54.1960842 C84.8493527,51.4362381 84.4600942,48.6122561 83.3031739,46.0698661 C82.7723493,44.9093048 82.0844556,43.8174157 81.6579615,42.6156511 C79.8591196,37.5728177 82.9752779,31.7356751 81.0904493,26.7122989 C80.3119829,24.639541 78.7596362,22.958215 77.6865221,21.0216571 C75.2788942,16.6666909 75.3820782,11.2186912 72.7566174,6.98847959 C70.293958,3.02265624 65.4408681,0.671775675 60.7918534,1.19597397 C58.0505971,1.50499917 56.0912466,2.48243442 53.5368681,1.31042775 C51.3803214,0.323836195 48.7915482,-0.77949821 46.5707981,0.774784073 C44.6767975,2.1001588 44.354634,4.71084944 43.3205005,6.77445103 C41.5044612,10.3992021 37.1959538,12.7649617 36.6892054,16.7857228 C36.5642381,17.7768926 36.6892054,18.8046875 36.3991436,19.761521 C35.5713782,22.4660638 31.9668154,23.2649511 30.4901369,25.6787813 C29.0444137,28.0411072 30.5050413,31.6132096 33.1947056,32.2942095 C34.341195,32.5849221 35.5748177,32.4086633 36.7201607,32.716544 C37.7944213,33.0026784 38.8365802,34.0052935 38.6508489,35.0525456 L36.2684438,35.4851808 L29.4135833,36.2451539 L28.3530806,36.3115371 C28.3530806,36.3115371 28.3530806,36.3298497 28.3530806,36.3630413 L28.2957561,36.3699085 L28.3519341,36.41569 C28.3519341,36.4969522 28.3519341,36.6239959 28.3519341,36.7910984 C26.4223923,37.5453488 23.2959156,39.5585907 22.1150314,44.839488 C21.8444974,46.0447872 21.2978437,47.1711001 20.5179716,48.130034 C18.7604033,50.2932104 15.8437341,54.5176993 16.0065356,58.5727966 C16.2358335,64.3550014 16.2358335,66.6681122 23.8920901,65.0485913 C25.8262178,64.6399913 27.930026,63.8021896 29.9948535,62.7789729 C30.1152349,65.1893694 30.4282265,67.5528399 31.0817255,69.3268734 C33.1694828,74.9934799 28.7623773,95 28.7623773,95 L71.3235056,95 C71.3235056,95 67.7281146,83.2043938 64.2496656,77.1909924 C61.7858597,72.9310228 62.6961724,70.3546683 63.4368046,69.2135642 C64.0790588,68.2437907 64.5588375,67.1760804 64.857305,66.0523509 C64.9834188,65.5590551 65.1060932,64.9993761 65.2115702,64.3790367 C65.9946225,65.0188333 66.8304134,65.5933912 67.7762672,65.9367526 C68.6521851,66.2537895 69.6484845,66.3407744 70.5347208,66.0958433 C72.3484671,68.3093794 74.374314,70.7369439 76.5423256,73.2595052 C84.8922083,82.9731972 87.2115565,76.9597958 87.2115565,76.9597958 C87.2115565,76.9597958 95.6772347,60.8859074 96.842068,56.0284891 C98.0069013,51.1710709 100.553254,51.4022675 100.553254,51.4022675 C107.533082,53.1637111 113.719539,50.6068138 116.593788,49.068555 C116.880101,48.916839 117.039493,48.6014024 116.99156,48.2813649 C116.943627,47.9613274 116.698785,47.7062281 116.380541,47.64475 Z M30.265425,50.5507314 C30.8477563,49.8881182 31.3481604,49.1580034 31.7558613,48.3761097 L31.7776446,48.3761097 C31.5662842,49.1845241 31.293784,49.9757633 30.9624906,50.7430138 C30.3124311,50.8677684 29.9203317,50.933007 29.9203317,50.933007 L30.265425,50.5507314 Z" id="Shape" fill="url(#linearGradient-3)"></path>
                    <path d="M45.1415767,1.77387301 C43.3057596,3.09448201 42.9932323,5.69191019 41.9938193,7.7523368 C40.2333236,11.3638452 36.0569241,13.722734 35.5656492,17.7283509 C35.4442357,18.7159267 35.5656492,19.7403782 35.2845994,20.6922308 C34.4830455,23.3876099 30.9879106,24.1838933 29.5511842,26.5888767 C28.149308,28.9420038 29.5657988,32.5016558 32.1728164,33.1803981 C33.2868977,33.4707938 34.4796729,33.2956345 35.5903815,33.6010109 C36.7010902,33.9063874 37.7769487,35.0218756 37.4093356,36.1362115 C37.1361552,36.9659134 36.1727166,37.4383826 35.9973416,38.2957414 C35.8444505,39.0332542 36.3346013,39.7361962 36.8090133,40.3100734 C37.411584,41.0360627 38.0546258,41.7505283 38.8606766,42.2264545 C41.0775971,43.5355399 43.8431268,42.7496277 46.3995554,42.6632005 C49.4923597,42.5690778 52.5242753,43.5570788 54.9963055,45.464597 C55.7034267,46.0142746 56.3689526,46.6492271 56.8073902,47.4409011 C58.2362472,50.0198914 56.8849599,53.2568816 57.1884937,56.2057807 C57.5324986,59.5568549 59.9742589,62.2464722 62.4396274,64.4739916 C63.4244258,65.3636165 64.4631857,66.2405654 65.6998047,66.7003586 C66.9364236,67.1601518 68.4147454,67.1347998 69.4546295,66.3143167 C70.547351,65.4523485 70.9273302,63.9254664 70.9340754,62.5115159 C70.9408206,61.0975654 70.6507773,59.6905291 70.7204776,58.2788834 C70.7542036,57.587465 71.0004032,56.7658296 71.6580596,56.6298506 C71.9874499,56.5618612 72.3213371,56.6989925 72.6214982,56.8534092 C74.7192536,57.9343266 76.7315699,60.051219 78.979968,59.3644101 C80.707862,58.8354751 81.5656258,56.8361238 81.837682,55.009627 C82.2500382,52.260705 81.8726903,49.448184 80.7517057,46.9154232 C80.2368226,45.7630593 79.5701725,44.6717707 79.1564673,43.4733123 C77.4184556,38.4386345 80.43693,32.6203493 78.6112307,27.6179377 C77.8568932,25.5529016 76.3515907,23.8773645 75.3117065,21.947155 C72.9733725,17.6073527 73.077923,12.1785665 70.5316122,7.96321939 C68.1449376,4.01061129 63.4390404,1.66900789 58.9332506,2.19102873 C56.275644,2.49870988 54.3768718,3.47360972 51.9002613,2.30626512 C49.8092511,1.32560346 47.3000388,0.220486499 45.1415767,1.77387301 Z" id="Shape" fill="#40243E"></path>
                    <path d="M63.9023599,38.1500771 C63.9023599,38.1500771 71.1582595,35.8674043 74.0606193,49.1069065 L81.4281482,65.9986852 C81.4281482,65.9986852 91.4747784,53.2157176 91.4747784,50.1341093 C91.4747784,50.1341093 93.4841045,44.0850264 101.186521,45.6828973 C106.389559,46.7626016 110.980869,47.7373029 113.41327,48.2566109 C113.71627,48.3210575 113.947577,48.5722472 113.992253,48.8853633 C114.03693,49.1984793 113.885451,49.5067643 113.613086,49.6570307 C110.846914,51.1750081 104.891495,53.6985029 98.1725319,51.9602475 C98.1725319,51.9602475 95.716689,51.7319802 94.6003967,56.5255931 C93.4841045,61.319206 85.3351711,77.1837819 85.3351711,77.1837819 C85.3351711,77.1837819 83.1025866,83.1187312 75.0652824,73.5315055 C67.0279782,63.9442797 61,55.7266576 61,55.7266576 L63.9023599,38.1500771 Z" id="Shape" fill="#FFBCC8"></path>
                    <path d="M65,39.513308 L63.9895971,42.751711 L62.9909158,45.9547529 L61.014652,52.2889734 L51.6373626,54 L48.5815385,52.1030418 L44.8388278,49.7794677 L41.6118681,47.6121673 L36.8681319,44.418251 L33,36.5475285 C33,36.5475285 34.0666667,36.3638783 37.3920879,35.7752852 L42.025641,34.9505703 C45.225641,34.3802281 46.4353114,32.0623574 46.8045421,29.7034221 C47.2464469,26.8790875 46.4798535,24 46.4798535,24 L58.3186813,24 C58.3186813,24 59.6432234,25.9391635 59.4357509,29.2882129 C59.3706114,30.2792469 59.1925225,31.2601696 58.9047619,32.2129278 C57.8638828,35.7193916 60.2140659,36.8897338 61.8082051,37.2695817 C62.2392782,37.3760283 62.6802935,37.43985 63.1245421,37.460076 L65,39.513308 Z" id="Shape" fill="#FFBCC8"></path>
                    <path d="M57.9789945,28.991927 C54.5448016,31.5173389 49.8988756,31.6741829 46.3002064,29.3861966 C46.7087906,26.7189521 46,24 46,24 L56.9461543,24 C56.9461543,24 58.1740744,25.8237662 57.9789945,28.991927 Z" id="Shape" fill="#000000" opacity="0.1"></path>
                    <circle id="Oval" fill="#FFBCC8" cx="52" cy="21" r="11"></circle>
                    <path d="M65,38.6919322 L63.9895971,41.890405 L62.9909158,45.0539526 L61.014652,51.3100707 L51.6373626,53 L48.5815385,51.1264317 L44.8388278,48.8315078 L41.6118681,46.6909307 L36.8681319,43.5363961 L33,35.7627214 C33,35.7627214 34.0666667,35.5813357 37.3920879,35 C39.7364103,41.2696376 42.701978,43.6039932 45.378022,44.3610816 C46.978022,44.8117294 48.4736996,44.6990674 49.6657875,44.5300745 C51.1980633,44.2944101 52.76478,44.3711802 54.2641758,44.7553984 C57.8627106,45.7175315 59.7569231,43.8755085 60.7520879,41.537773 C61.4882051,39.8084121 61.7320147,37.8064092 61.807033,36.4679852 C62.238106,36.5731193 62.6791213,36.6361541 63.12337,36.6561307 L65,38.6919322 Z" id="Shape" fill="#000000" opacity="0.1"></path>
                    <path d="M28.4659425,94.9988361 C28.4659425,94.9988361 32.8703739,74.8626549 30.7840643,69.1593435 C30.1871479,67.529826 29.8742015,65.3974859 29.7339551,63.1906536 C29.3862368,57.688704 30.0886277,51.700227 30.0886277,51.700227 C30.188307,51.5058488 30.2821909,51.3126346 30.3725976,51.1182564 C30.6044098,50.6216415 30.8084045,50.1358901 30.9845818,49.6610022 C33.4684493,42.9497177 30.3783929,38.4813478 28.8113426,36.7726823 C28.560022,36.492302 28.2888695,36.2305105 28,35.9893499 L36.8668158,35 C39.1976873,41.7171041 42.1869053,44.1951347 44.8759266,44.9889426 C46.4580447,45.454519 47.9370064,45.3381249 49.1157713,45.1635337 C50.6309221,44.9200625 52.1801289,44.9993758 53.6627672,45.3963219 C57.2210841,46.3903276 59.0941265,44.4872839 60.0781692,42.0721062 C61.2998194,39.0737939 61.1491415,35.2874935 61.1491415,35.2874935 L66.2490094,36.8006169 C66.2490094,36.8006169 65.7992938,39.605715 65.3924634,43.2919164 C65.2962614,44.1567247 65.2023774,45.0692545 65.117766,46.0062271 C64.7700477,49.9147413 64.5637349,54.2364546 64.9740424,57.1695862 C65.3909293,60.0680713 65.2425191,63.0203094 64.5370765,65.8618984 C64.2392743,66.992919 63.7601108,68.0677137 63.1183859,69.0441134 C62.377746,70.1917593 61.4678832,72.786184 63.9297286,77.075307 C67.4069112,83.1278007 71,95 71,95 L28.4659425,94.9988361 Z" id="Shape" fill="#FF808E"></path>
                    <path d="M65.6053414,38 C65.6053414,38 69.4302844,44.9187538 64.4114285,50.8664544 C59.3925726,56.814155 61.3940085,48.4388215 61.3940085,48.4388215 L62.6574084,38.7282899 L65.6053414,38 Z" id="Shape" fill="#FF808E"></path>
                    <path d="M29,38.1981534 C29.3145161,38.106774 29.6370276,38.0404772 29.9639492,38 C31.4719322,38.6605114 32.3071228,40.4939631 32.7606777,42.4083807 C33.3723111,45.0317307 32.8001993,47.7707409 31.1749755,50 C33.6608276,43.8519176 30.5683024,39.7620739 29,38.1981534 Z" id="Shape" fill="#000000" opacity="0.1"></path>
                    <path d="M64.2385095,47.0406345 C61.7809496,47.2025789 58.570582,46.9154435 58.570582,46.9154435 C59.0033889,48.8909351 58.1101493,50.434575 57.1892837,51.4406975 C56.4737366,52.2314641 55.4042921,52.6049003 54.3507157,52.4318889 C49.0396236,51.5130556 40.9636327,56.3369304 40.9636327,56.3369304 C40.9636327,56.3369304 35.1875035,60.9919695 29.0959779,64 C28.7506533,58.5708438 29.4482089,52.6615972 29.4482089,52.6615972 C29.547202,52.4697907 29.6404396,52.2791328 29.730224,52.0873264 C32.1912372,51.6279097 41.1328417,49.813214 42.9158677,47.1485975 C43.1806165,46.7523506 43.6065168,46.3813717 44.1360145,46.0368092 C45.6588959,45.0536576 48.0957364,44.2829861 50.4128643,43.7202007 C53.2967727,43.0143375 56.2834313,42.8253368 59.2336052,43.1620095 C60.5001312,43.3067806 61.7532965,43.5506392 62.981528,43.8913334 C63.5179322,44.0394953 64.0359191,44.1991426 64.5113159,44.3656811 C65.8143407,44.8250978 66.801969,45.3384959 66.9734802,45.8852017 C67.2048477,46.6202683 65.8914632,46.9326716 64.2385095,47.0406345 Z" id="Shape" fill="#000000" opacity="0.1"></path>
                    <path d="M61.9125725,46.9778704 C60.1479775,46.9488212 58.6035268,46.8136305 58.6035268,46.8136305 C59.034643,48.735349 58.1448926,50.236971 57.2276243,51.2157067 C56.5148722,51.9849486 55.4496053,52.3482199 54.4001445,52.1799178 C52.4062323,51.8447343 50.0201879,52.3017011 47.8221836,53 L44.1565498,50.7241043 L41,48.6012757 C41.9172684,48.1219633 42.6270048,47.5957253 43.0099643,47.0370861 C44.0281322,45.5488716 47.3669892,44.4416488 50.4776756,43.7020107 C54.5599776,42.7211793 58.8312897,42.7688564 62.8894633,43.8405532 L62.9972424,43.8684851 C64.9911545,44.4103651 66.740844,45.0818493 66.9736008,45.8080801 C67.3084038,46.8527352 64.3937835,47.020327 61.9125725,46.9778704 Z" id="Shape" fill="#000000" opacity="0.1"></path>
                    <path d="M29.6621083,37 C29.6621083,37 23.7237012,37.6110121 21.9924699,45.3991195 C21.7248242,46.6097671 21.1848432,47.7416697 20.4144952,48.7068542 C18.693481,50.8580303 15.8474503,55.0466791 16.006383,59.0676442 C16.2334297,64.8102392 16.2334297,67.1072772 23.7259717,65.4993506 C31.2185136,63.891424 41.3220929,55.6220872 41.3220929,55.6220872 C41.3220929,55.6220872 49.286892,50.806347 54.52486,51.7171225 C55.5638928,51.8896922 56.6184101,51.5163352 57.3243461,50.7259506 C58.232533,49.719848 59.1191505,48.1762384 58.6866265,46.2007858 C58.6866265,46.2007858 67.5414488,47.0047491 66.9738319,45.1671186 C66.7467852,44.4205813 65.011013,43.7303214 63.0368417,43.1744382 C58.9875892,42.0450262 54.7196161,41.9857087 50.6412258,43.0021603 C47.5556608,43.7636284 44.2555366,44.9018108 43.2474491,46.4304896 C41.2040286,49.5314909 29.6246456,51.4839732 29.6246456,51.4839732 L29.9652157,51.0969223 C32.1953344,48.5488845 33.0984631,45.0816061 32.3991566,41.7525716 C31.9564155,39.688683 31.142453,37.7120818 29.6621083,37 Z" id="Shape" fill="#FFBCC8"></path>
                    <path d="M28.004471,37.2246642 C28.004471,37.2246642 27.6814407,50.8168488 32.5268949,48.7948709 C37.372349,46.7728931 33.6036625,37.2246642 33.6036625,37.2246642 L31.4501273,37 L28.004471,37.2246642 Z" id="Shape" fill="#FF808E"></path>
                    <path d="M43.0900506,20.9438924 C46.4619342,20.5965437 49.7872605,19.9333081 53.0151651,18.9643307 C53.8448151,18.7154354 54.746065,18.384278 55.1336139,17.6607941 C55.2336265,17.4741226 55.3086359,17.2526479 55.5052516,17.1503477 C55.6723181,17.0628125 55.8791624,17.0902332 56.066686,17.1303095 C57.1747802,17.3739317 58.1260364,18.0183175 59.1818513,18.413808 C60.2376662,18.8092985 61.5821538,18.9021069 62.3936197,18.1596394 C63.351695,17.2821779 63.0346096,15.7740408 62.4038483,14.6719407 C60.0615076,10.5714954 54.5744525,8.69950711 49.5829143,9.0391016 C48.8816896,9.08656046 48.1690998,9.17409569 47.537202,9.46095812 C46.2006699,10.0568304 45.4687595,11.3825145 44.7448046,12.583751 C43.3366726,14.9134536 35.8914161,21.683196 43.0900506,20.9438924 Z" id="Shape" fill="#000000" opacity="0.1"></path>
                    <path d="M43.0900506,18.9438924 C46.4619342,18.5965437 49.7872605,17.9333081 53.0151651,16.9643307 C53.8448151,16.7154354 54.746065,16.384278 55.1336139,15.6607941 C55.2336265,15.4741226 55.3086359,15.2526479 55.5052516,15.1503477 C55.6723181,15.0628125 55.8791624,15.0902332 56.066686,15.1303095 C57.1747802,15.3739317 58.1260364,16.0183175 59.1818513,16.413808 C60.2376662,16.8092985 61.5821538,16.9021069 62.3936197,16.1596394 C63.351695,15.2821779 63.0346096,13.7740408 62.4038483,12.6719407 C60.0615076,8.57149539 54.5744525,6.69950711 49.5829143,7.0391016 C48.8816896,7.08656046 48.1690998,7.17409569 47.537202,7.46095812 C46.2006699,8.05683044 45.4687595,9.38251454 44.7448046,10.583751 C43.3366726,12.9134536 35.8914161,19.683196 43.0900506,18.9438924 Z" id="Shape" fill="#40243E"></path>
                    <path d="M118.914221,32 L95.0857788,32 C94.4861197,32 94,32.4819044 94,33.0763636 L94,46.9236364 C94,47.5180956 94.4861197,48 95.0857788,48 L118.914221,48 C119.51388,48 120,47.5180956 120,46.9236364 L120,33.0763636 C120,32.7908943 119.885606,32.5171169 119.681983,32.3152596 C119.47836,32.1134023 119.202188,32 118.914221,32 Z" id="Shape" fill="url(#linearGradient-4)"></path>
                    <rect id="Rectangle-path" fill="#6C63FF" x="94" y="32" width="26" height="16" rx="8"></rect>
                    <rect id="Rectangle-path" fill="#6C63FF" x="94" y="35" width="26" height="2"></rect>
                    <rect id="Rectangle-path" fill="#000000" opacity="0.3" x="94" y="35" width="26" height="2"></rect>
                    <rect id="Rectangle-path" fill="#D6D6E3" x="95" y="40" width="19" height="1"></rect>
                    <circle id="Oval" fill="#6C63FF" cx="97" cy="45" r="2"></circle>
                    <circle id="Oval" fill="#000000" opacity="0.3" cx="97" cy="45" r="2"></circle>
                    <path d="M30,51 C30,51 27.3793103,52.3635135 26.9448276,54.0297297 C26.5103448,55.6959459 26,56 26,56" id="Shape" fill="#000000" opacity="0.05"></path>
                    <path d="M82,66 C82,66 79.75,69.5428571 82,70" id="Shape" fill="#000000" opacity="0.05"></path>
                    <path d="M30,70.4829057 C30,70.4829057 39.1764706,72.8278721 46,68 L48.9411765,68 C48.9411765,68 57.7647059,73.2416898 62,71.7243585" id="Shape" fill="#000000" opacity="0.05"></path>
                    <rect id="Rectangle-path" fill="#8ED16F" transform="translate(97.500000, 67.500000) rotate(-66.420000) translate(-97.500000, -67.500000) " x="95" y="63" width="5" height="9"></rect>
                    <ellipse id="Oval" fill="#8ED16F" transform="translate(96.500000, 67.000000) rotate(-66.420000) translate(-96.500000, -67.000000) " cx="96.5" cy="67" rx="1" ry="2"></ellipse>
                    <ellipse id="Oval" fill="#000000" opacity="0.1" transform="translate(96.500000, 67.000000) rotate(-66.420000) translate(-96.500000, -67.000000) " cx="96.5" cy="67" rx="1" ry="2"></ellipse>
                    <rect id="Rectangle-path" fill="#8ED16F" transform="translate(108.500000, 53.500000) rotate(-66.420000) translate(-108.500000, -53.500000) " x="106" y="49" width="5" height="9"></rect>
                    <ellipse id="Oval" fill="#8ED16F" transform="translate(108.500000, 53.000000) rotate(-66.420000) translate(-108.500000, -53.000000) " cx="108.5" cy="53" rx="1" ry="2"></ellipse>
                    <ellipse id="Oval" fill="#000000" opacity="0.1" transform="translate(108.500000, 53.000000) rotate(-66.420000) translate(-108.500000, -53.000000) " cx="108.5" cy="53" rx="1" ry="2"></ellipse>
                    <rect id="Rectangle-path" fill="#8ED16F" transform="translate(117.500000, 67.500000) rotate(-11.090000) translate(-117.500000, -67.500000) " x="115" y="63" width="5" height="9"></rect>
                    <ellipse id="Oval" fill="#8ED16F" transform="translate(117.500000, 68.000000) rotate(-11.090000) translate(-117.500000, -68.000000) " cx="117.5" cy="68" rx="1" ry="2"></ellipse>
                    <ellipse id="Oval" fill="#000000" opacity="0.1" transform="translate(117.500000, 68.000000) rotate(-11.090000) translate(-117.500000, -68.000000) " cx="117.5" cy="68" rx="1" ry="2"></ellipse>
                    <rect id="Rectangle-path" fill="#8ED16F" transform="translate(107.500000, 86.500000) rotate(-66.420000) translate(-107.500000, -86.500000) " x="105" y="82" width="5" height="9"></rect>
                    <ellipse id="Oval" fill="#8ED16F" transform="translate(106.500000, 86.000000) rotate(-66.420000) translate(-106.500000, -86.000000) " cx="106.5" cy="86" rx="1" ry="2"></ellipse>
                    <ellipse id="Oval" fill="#000000" opacity="0.1" transform="translate(106.500000, 86.000000) rotate(-66.420000) translate(-106.500000, -86.000000) " cx="106.5" cy="86" rx="1" ry="2"></ellipse>
                    <rect id="Rectangle-path" fill="#8ED16F" transform="translate(87.500000, 82.500000) rotate(-66.420000) translate(-87.500000, -82.500000) " x="85" y="78" width="5" height="9"></rect>
                    <ellipse id="Oval" fill="#8ED16F" transform="translate(88.500000, 82.000000) rotate(-66.420000) translate(-88.500000, -82.000000) " cx="88.5" cy="82" rx="1" ry="2"></ellipse>
                    <ellipse id="Oval" fill="#000000" opacity="0.1" transform="translate(88.500000, 82.000000) rotate(-66.420000) translate(-88.500000, -82.000000) " cx="88.5" cy="82" rx="1" ry="2"></ellipse>
                </g>
            </g>
        </g>
    </g>
</svg>