<svg xmlns="http://www.w3.org/2000/svg" viewBox="0 0 469.16 80.91"><defs><style>.cls-1{fill:#adc5e7;}.cls-2{fill:#fff;}</style></defs><title>befreer-logo-light</title><g id="Layer_2" data-name="Layer 2"><g id="Layer_1-2" data-name="Layer 1"><g id="_66edd488-99c2-2453-47a7-95bac4bbe18b" data-name="66edd488-99c2-2453-47a7-95bac4bbe18b"><path class="cls-1" d="M49.32,0a3.56,3.56,0,0,0,0,7.11,33.34,33.34,0,1,1-33,37.8l2.49,2.49a3.5,3.5,0,0,0,2.51,1,3.56,3.56,0,0,0,2.52-6.07L14.94,33.5a3.57,3.57,0,0,0-5,0L1,42.37a3.56,3.56,0,0,0,5,5l3-3A40.45,40.45,0,1,0,49.32,0Z"/><path class="cls-1" d="M35.92,60.14a3.77,3.77,0,0,1-2.67-6.43L45,41.92V18.09a3.77,3.77,0,1,1,7.53,0V43.48a3.73,3.73,0,0,1-1.1,2.66L38.59,59A3.8,3.8,0,0,1,35.92,60.14Z"/><path class="cls-1" d="M76.18,42.77h-3.9a2.49,2.49,0,1,1,0-5h3.9a2.49,2.49,0,0,1,0,5Z"/><path class="cls-1" d="M66.91,62.25a2.5,2.5,0,0,1-1.76-.72l-2.76-2.76a2.49,2.49,0,0,1,3.51-3.52L68.66,58a2.48,2.48,0,0,1-1.75,4.24Z"/><path class="cls-1" d="M47.43,70.32a2.49,2.49,0,0,1-2.49-2.48V63.93a2.49,2.49,0,0,1,5,0v3.91A2.48,2.48,0,0,1,47.43,70.32Z"/><path class="cls-1" d="M64.15,26.05a2.49,2.49,0,0,1-1.76-4.24l2.76-2.76a2.48,2.48,0,0,1,3.51,3.51L65.9,25.32A2.44,2.44,0,0,1,64.15,26.05Z"/></g><path class="cls-2" d="M123.48,72v-68h28.24c12.36,0,20.33,6.65,20.33,17a15.1,15.1,0,0,1-12.4,14.8v.38c9.24.89,15.7,7.54,15.7,16.55,0,12-8.82,19.33-23.34,19.33Zm12.17-39.37h11.12c8.49,0,13.25-3.58,13.25-9.9,0-5.94-4.1-9.29-11.36-9.29h-13ZM149.23,62.5c9,0,13.72-3.72,13.72-10.7S158,41.24,148.71,41.24H135.65V62.5Z"/><path class="cls-2" d="M226.93,57C225.42,66.46,216.65,73,204.82,73c-15,0-24-9.86-24-25.79S189.92,21,204.35,21c14.19,0,23.05,9.86,23.05,25v3.82H192.47v.71c0,8,4.9,13.39,12.58,13.39,5.47,0,9.62-2.74,10.9-6.89ZM192.56,42.09H215.9c-.24-7.08-4.76-12-11.51-12C197.79,30.06,193,35.11,192.56,42.09Z"/><path class="cls-2" d="M255.46,72v-68h43.38V14.22H267.63V34.31h28.52v9.9H267.63V72Z"/><path class="cls-2" d="M306.49,22h11.26v8.72H318c1.7-6.08,6.08-9.57,12-9.57a16.62,16.62,0,0,1,3.67.47V32.23a14.81,14.81,0,0,0-4.76-.66c-6.65,0-10.65,4.29-10.65,11.32V72H306.49Z"/><path class="cls-2" d="M381.88,57C380.37,66.46,371.6,73,359.77,73c-15,0-24-9.86-24-25.79S344.87,21,359.29,21c14.2,0,23.06,9.86,23.06,25v3.82H347.41v.71c0,8,4.91,13.39,12.59,13.39,5.47,0,9.62-2.74,10.89-6.89ZM347.51,42.09h23.34c-.24-7.08-4.77-12-11.51-12S348,35.11,347.51,42.09Z"/><path class="cls-2" d="M434,57C432.48,66.46,423.7,73,411.87,73c-15,0-24.05-9.86-24.05-25.79S397,21,411.4,21c14.19,0,23.05,9.86,23.05,25v3.82H399.52v.71c0,8,4.9,13.39,12.59,13.39,5.47,0,9.62-2.74,10.89-6.89ZM399.61,42.09H423c-.24-7.08-4.76-12-11.5-12S400.08,35.11,399.61,42.09Z"/><path class="cls-2" d="M442,22h11.27v8.72h.24c1.69-6.08,6.08-9.57,12-9.57a16.64,16.64,0,0,1,3.68.47V32.23a14.81,14.81,0,0,0-4.76-.66c-6.65,0-10.66,4.29-10.66,11.32V72H442Z"/></g></g></svg>