<?xml version="1.0" encoding="UTF-8"?>
<svg width="120px" height="120px" viewBox="0 0 120 120" version="1.1" xmlns="http://www.w3.org/2000/svg" xmlns:xlink="http://www.w3.org/1999/xlink">
    <!-- Generator: Sketch 48.2 (47327) - http://www.bohemiancoding.com/sketch -->
    <title>fulfil-customer</title>
    <desc>Created with Sketch.</desc>
    <defs>
        <circle id="path-1" cx="60" cy="60" r="60"></circle>
        <linearGradient x1="49.9918456%" y1="100.006561%" x2="49.9918456%" y2="-0.00738164758%" id="linearGradient-3">
            <stop stop-color="#808080" stop-opacity="0.25" offset="0%"></stop>
            <stop stop-color="#808080" stop-opacity="0.12" offset="54%"></stop>
            <stop stop-color="#808080" stop-opacity="0.1" offset="100%"></stop>
        </linearGradient>
        <linearGradient x1="32442%" y1="44493%" x2="32442%" y2="44459%" id="linearGradient-4">
            <stop stop-color="#808080" stop-opacity="0.25" offset="0%"></stop>
            <stop stop-color="#808080" stop-opacity="0.12" offset="54%"></stop>
            <stop stop-color="#808080" stop-opacity="0.1" offset="100%"></stop>
        </linearGradient>
        <linearGradient x1="43775%" y1="74335%" x2="43775%" y2="28801%" id="linearGradient-5">
            <stop stop-color="#808080" stop-opacity="0.25" offset="0%"></stop>
            <stop stop-color="#808080" stop-opacity="0.12" offset="54%"></stop>
            <stop stop-color="#808080" stop-opacity="0.1" offset="100%"></stop>
        </linearGradient>
    </defs>
    <g id="Desktop-HD" stroke="none" stroke-width="1" fill="none" fill-rule="evenodd" transform="translate(-480.000000, -1040.000000)">
        <g id="fulfil-customer" transform="translate(480.000000, 1040.000000)">
            <mask id="mask-2" fill="white">
                <use xlink:href="#path-1"></use>
            </mask>
            <use id="Mask" fill="#A8EBF7" xlink:href="#path-1"></use>
            <g id="undraw_drone_delivery_5vrm" mask="url(#mask-2)">
                <g transform="translate(-11.000000, 15.000000)">
                    <polygon id="Shape" stroke="none" fill="#6C63FF" fill-rule="nonzero" opacity="0.25" points="135.308901 40.3604436 135.308901 31.0147874 129.658639 31.0147874 129.658639 40.3604436 122.967539 40.3604436 122.967539 25.9038817 118.060733 25.9038817 118.060733 15.0979667 114.046073 15.0979667 114.046073 4 105.719372 4 105.719372 15.0979667 101.704712 15.0979667 101.704712 25.9038817 96.9465969 25.9038817 96.9465969 12.9075786 94.2701571 12.9075786 94.2701571 6.33641405 92.634555 6.33641405 92.634555 12.9075786 83.1183246 12.9075786 83.1183246 54.3789279 75.8324607 54.3789279 75.8324607 49.9981516 71.3717277 49.9981516 71.3717277 54.3789279 64.0858639 54.3789279 64.0858639 40.3604436 51.0010471 40.3604436 51.0010471 31.0147874 45.3507853 31.0147874 45.3507853 40.3604436 45.0534031 40.3604436 45.0534031 58.3216266 39.1057592 58.3216266 39.1057592 47.8077634 31.9685864 47.8077634 31.9685864 58.3216266 26.0209424 58.3216266 26.0209424 25.9038817 21.4115183 25.9038817 21.4115183 15.0979667 4.46073298 15.0979667 4.46073298 25.9038817 0 25.9038817 0 83 26.0209424 83 45.0534031 83 64.0858639 83 83.1183246 83 96.9465969 83 122.967539 83 142 83 142 40.3604436"></polygon>
                    <rect id="Rectangle-path" stroke="none" fill="#FFFFFF" fill-rule="nonzero" opacity="0.4" transform="translate(19.500000, 30.000000) rotate(-180.000000) translate(-19.500000, -30.000000) " x="17" y="28" width="5" height="4"></rect>
                    <rect id="Rectangle-path" stroke="none" fill="#FFFFFF" fill-rule="nonzero" opacity="0.4" transform="translate(19.500000, 39.000000) rotate(-180.000000) translate(-19.500000, -39.000000) " x="17" y="37" width="5" height="4"></rect>
                    <rect id="Rectangle-path" stroke="none" fill="#FFFFFF" fill-rule="nonzero" opacity="0.4" transform="translate(19.500000, 46.000000) rotate(-180.000000) translate(-19.500000, -46.000000) " x="17" y="44" width="5" height="4"></rect>
                    <rect id="Rectangle-path" stroke="none" fill="#FFFFFF" fill-rule="nonzero" opacity="0.4" transform="translate(19.500000, 51.000000) rotate(-180.000000) translate(-19.500000, -51.000000) " x="17" y="49" width="5" height="4"></rect>
                    <rect id="Rectangle-path" stroke="none" fill="#FFFFFF" fill-rule="nonzero" opacity="0.4" transform="translate(19.500000, 60.000000) rotate(-180.000000) translate(-19.500000, -60.000000) " x="17" y="58" width="5" height="4"></rect>
                    <rect id="Rectangle-path" stroke="none" fill="#FFFFFF" fill-rule="nonzero" opacity="0.4" transform="translate(19.500000, 65.000000) rotate(-180.000000) translate(-19.500000, -65.000000) " x="17" y="63" width="5" height="4"></rect>
                    <rect id="Rectangle-path" stroke="none" fill="#FFFFFF" fill-rule="nonzero" opacity="0.4" transform="translate(19.500000, 72.000000) rotate(-180.000000) translate(-19.500000, -72.000000) " x="17" y="70" width="5" height="4"></rect>
                    <rect id="Rectangle-path" stroke="none" fill="#FFFFFF" fill-rule="nonzero" opacity="0.4" x="28" y="63" width="15" height="2"></rect>
                    <rect id="Rectangle-path" stroke="none" fill="#FFFFFF" fill-rule="nonzero" opacity="0.4" x="28" y="65" width="15" height="2"></rect>
                    <rect id="Rectangle-path" stroke="none" fill="#FFFFFF" fill-rule="nonzero" opacity="0.4" x="28" y="68" width="15" height="2"></rect>
                    <rect id="Rectangle-path" stroke="none" fill="#FFFFFF" fill-rule="nonzero" opacity="0.4" x="65" y="63" width="15" height="2"></rect>
                    <rect id="Rectangle-path" stroke="none" fill="#FFFFFF" fill-rule="nonzero" opacity="0.4" x="65" y="65" width="15" height="2"></rect>
                    <rect id="Rectangle-path" stroke="none" fill="#FFFFFF" fill-rule="nonzero" opacity="0.4" x="65" y="68" width="15" height="2"></rect>
                    <rect id="Rectangle-path" stroke="none" fill="#FFFFFF" fill-rule="nonzero" opacity="0.4" x="28" y="70" width="15" height="2"></rect>
                    <rect id="Rectangle-path" stroke="none" fill="#FFFFFF" fill-rule="nonzero" opacity="0.4" x="28" y="73" width="15" height="2"></rect>
                    <rect id="Rectangle-path" stroke="none" fill="#FFFFFF" fill-rule="nonzero" opacity="0.4" x="28" y="74" width="15" height="2"></rect>
                    <rect id="Rectangle-path" stroke="none" fill="#FFFFFF" fill-rule="nonzero" opacity="0.4" x="48" y="44" width="4" height="5"></rect>
                    <rect id="Rectangle-path" stroke="none" fill="#FFFFFF" fill-rule="nonzero" opacity="0.4" transform="translate(60.000000, 46.500000) rotate(-180.000000) translate(-60.000000, -46.500000) " x="58" y="44" width="4" height="5"></rect>
                    <rect id="Rectangle-path" stroke="none" fill="#FFFFFF" fill-rule="nonzero" opacity="0.4" x="48" y="51" width="4" height="5"></rect>
                    <rect id="Rectangle-path" stroke="none" fill="#FFFFFF" fill-rule="nonzero" opacity="0.4" transform="translate(60.000000, 53.500000) rotate(-180.000000) translate(-60.000000, -53.500000) " x="58" y="51" width="4" height="5"></rect>
                    <rect id="Rectangle-path" stroke="none" fill="#FFFFFF" fill-rule="nonzero" opacity="0.4" x="48" y="61" width="4" height="5"></rect>
                    <rect id="Rectangle-path" stroke="none" fill="#FFFFFF" fill-rule="nonzero" opacity="0.4" transform="translate(60.000000, 63.500000) rotate(-180.000000) translate(-60.000000, -63.500000) " x="58" y="61" width="4" height="5"></rect>
                    <rect id="Rectangle-path" stroke="none" fill="#FFFFFF" fill-rule="nonzero" opacity="0.4" x="48" y="68" width="4" height="5"></rect>
                    <rect id="Rectangle-path" stroke="none" fill="#FFFFFF" fill-rule="nonzero" opacity="0.4" transform="translate(60.000000, 70.500000) rotate(-180.000000) translate(-60.000000, -70.500000) " x="58" y="68" width="4" height="5"></rect>
                    <rect id="Rectangle-path" stroke="none" fill="#FFFFFF" fill-rule="nonzero" opacity="0.4" x="82" y="17" width="5" height="8"></rect>
                    <rect id="Rectangle-path" stroke="none" fill="#FFFFFF" fill-rule="nonzero" opacity="0.4" x="82" y="26" width="5" height="8"></rect>
                    <rect id="Rectangle-path" stroke="none" fill="#FFFFFF" fill-rule="nonzero" opacity="0.4" x="82" y="37" width="5" height="8"></rect>
                    <rect id="Rectangle-path" stroke="none" fill="#FFFFFF" fill-rule="nonzero" opacity="0.4" x="82" y="46" width="5" height="8"></rect>
                    <rect id="Rectangle-path" stroke="none" fill="#FFFFFF" fill-rule="nonzero" opacity="0.4" x="82" y="56" width="5" height="8"></rect>
                    <rect id="Rectangle-path" stroke="none" fill="#FFFFFF" fill-rule="nonzero" opacity="0.4" x="82" y="65" width="5" height="8"></rect>
                    <rect id="Rectangle-path" stroke="none" fill="#FFFFFF" fill-rule="nonzero" opacity="0.4" x="100" y="31" width="19" height="5"></rect>
                    <rect id="Rectangle-path" stroke="none" fill="#FFFFFF" fill-rule="nonzero" opacity="0.4" x="100" y="42" width="19" height="5"></rect>
                    <rect id="Rectangle-path" stroke="none" fill="#FFFFFF" fill-rule="nonzero" opacity="0.4" x="100" y="56" width="19" height="5"></rect>
                    <rect id="Rectangle-path" stroke="none" fill="#FFFFFF" fill-rule="nonzero" opacity="0.4" x="100" y="68" width="19" height="5"></rect>
                    <path d="M39.1936819,10.3337966 L38.0928819,10.3337966 C38.3764951,10.3449821 38.6442763,10.2204413 38.789947,10.0096026 C38.9356177,9.79876395 38.9356177,9.53572751 38.789947,9.32488882 C38.6442763,9.11405013 38.3764951,8.98950931 38.0928819,9.00069487 L29.1760819,9.00069487 C28.764243,9.0169376 28.44,9.31055224 28.44,9.66724573 C28.44,10.0239392 28.764243,10.3175539 29.1760819,10.3337966 L30.2768819,10.3337966 C29.9932688,10.322611 29.7254875,10.4471518 29.5798168,10.6579905 C29.4341462,10.8688292 29.4341462,11.1318657 29.5798168,11.3427043 C29.7254875,11.553543 29.9932688,11.6780839 30.2768819,11.6668983 L28.7360819,11.6668983 C28.324243,11.683141 28,11.9767557 28,12.3334491 C28,12.6901426 28.324243,12.9837573 28.7360819,13 L37.6528819,13 C38.0647209,12.9837573 38.3889638,12.6901426 38.3889638,12.3334491 C38.3889638,11.9767557 38.0647209,11.683141 37.6528819,11.6668983 L39.1936819,11.6668983 C39.4772951,11.6780839 39.7450763,11.553543 39.890747,11.3427043 C40.0364177,11.1318657 40.0364177,10.8688292 39.890747,10.6579905 C39.7450763,10.4471518 39.4772951,10.322611 39.1936819,10.3337966 Z" id="Shape" stroke="none" fill="#252223" fill-rule="nonzero" opacity="0.1"></path>
                    <path d="M76.1983738,27.3335649 L75.1039793,27.3335649 C75.3859422,27.3447485 75.6521652,27.2202293 75.7969882,27.0094273 C75.9418113,26.7986252 75.9418113,26.5356345 75.7969882,26.3248324 C75.6521652,26.1140303 75.3859422,25.9895111 75.1039793,26.0006948 L66.2390658,26.0006948 C65.8296233,26.0169347 65.5072671,26.3104983 65.5072671,26.6671298 C65.5072671,27.0237614 65.8296233,27.317325 66.2390658,27.3335649 L67.3334603,27.3335649 C67.0514975,27.3223813 66.7852745,27.4469005 66.6404514,27.6577026 C66.4956284,27.8685046 66.4956284,28.1314954 66.6404514,28.3422974 C66.7852745,28.5530995 67.0514975,28.6776187 67.3334603,28.6664351 L65.8016262,28.6664351 C65.5196633,28.6552515 65.2534403,28.7797707 65.1086173,28.9905727 C64.9637942,29.2013748 64.9637942,29.4643655 65.1086173,29.6751676 C65.2534403,29.8859697 65.5196633,30.0104889 65.8016262,29.9993052 L74.6665397,29.9993052 C74.9485025,30.0104889 75.2147255,29.8859697 75.3595486,29.6751676 C75.5043716,29.4643655 75.5043716,29.2013748 75.3595486,28.9905727 C75.2147255,28.7797707 74.9485025,28.6552515 74.6665397,28.6664351 L76.1983738,28.6664351 C76.4803367,28.6776187 76.7465597,28.5530995 76.8913827,28.3422974 C77.0362058,28.1314954 77.0362058,27.8685046 76.8913827,27.6577026 C76.7465597,27.4469005 76.4803367,27.3223813 76.1983738,27.3335649 Z" id="Shape" stroke="none" fill="#252223" fill-rule="nonzero" opacity="0.1"></path>
                    <path d="M138.198374,5.33356492 L137.103979,5.33356492 C137.385942,5.34474854 137.652165,5.22022935 137.796988,5.00942728 C137.941811,4.79862521 137.941811,4.53563446 137.796988,4.32483239 C137.652165,4.11403032 137.385942,3.98951113 137.103979,4.00069475 L128.239066,4.00069475 C127.829623,4.01693466 127.507267,4.3104983 127.507267,4.66712983 C127.507267,5.02376137 127.829623,5.31732501 128.239066,5.33356492 L129.33346,5.33356492 C129.051497,5.32238129 128.785274,5.44690048 128.640451,5.65770255 C128.495628,5.86850462 128.495628,6.13149538 128.640451,6.34229745 C128.785274,6.55309952 129.051497,6.67761871 129.33346,6.66643508 L127.801626,6.66643508 C127.519663,6.65525146 127.25344,6.77977065 127.108617,6.99057272 C126.963794,7.20137479 126.963794,7.46436554 127.108617,7.67516761 C127.25344,7.88596968 127.519663,8.01048887 127.801626,7.99930525 L136.66654,7.99930525 C136.948503,8.01048887 137.214726,7.88596968 137.359549,7.67516761 C137.504372,7.46436554 137.504372,7.20137479 137.359549,6.99057272 C137.214726,6.77977065 136.948503,6.65525146 136.66654,6.66643508 L138.198374,6.66643508 C138.480337,6.67761871 138.74656,6.55309952 138.891383,6.34229745 C139.036206,6.13149538 139.036206,5.86850462 138.891383,5.65770255 C138.74656,5.44690048 138.480337,5.32238129 138.198374,5.33356492 Z" id="Shape" stroke="none" fill="#252223" fill-rule="nonzero" opacity="0.1"></path>
                    <path d="M118.04474,0.635338408 C116.807619,0.624040577 115.57118,0.695274373 114.344441,0.84852039 C114.344441,0.379895519 113.946864,0 113.456428,0 C112.965992,0 112.568415,0.379895519 112.568415,0.84852039 C111.341676,0.695274373 110.105238,0.624040577 108.868116,0.635338408 C106.130688,0.635338408 103.909921,0.915841016 103.909921,1.27207933 C103.909921,1.62831764 106.12922,1.90882025 108.868116,1.90882025 C110.105238,1.92011808 111.341676,1.84888428 112.568415,1.69563827 C112.568378,1.79770992 112.587775,1.89893655 112.625659,1.99437354 C112.462983,2.09011943 112.359239,2.25551321 112.347557,2.43773455 C112.335875,2.61995589 112.417718,2.79621239 112.566948,2.91021456 C112.131254,3.05220443 111.778103,3.36267423 111.593803,3.76574751 C111.348221,3.58651334 111.051187,3.4832602 110.742484,3.46981726 L101.523294,3.07711361 C100.842918,2.20715725 99.7727356,1.69508314 98.6361511,1.69563827 L92.8325088,1.69563827 C91.6863349,1.69513235 90.6083303,2.21589193 89.9292199,3.09815131 L81.1723838,3.47262229 C80.8866998,3.48464812 80.6103986,3.57362495 80.3753737,3.72928218 C80.2028776,3.37614237 79.898826,3.09711401 79.5225877,2.9466799 C79.7151494,2.8294946 79.8191582,2.61627341 79.7892534,2.40000714 C79.7593486,2.18374088 79.6009534,2.00364867 79.3831476,1.93827302 C79.4077091,1.85954 79.4200718,1.77779448 79.4198423,1.69563827 C80.646581,1.84888883 81.8830195,1.92012264 83.1201413,1.90882025 C85.85757,1.90882025 88.0783365,1.62831764 88.0783365,1.27207933 C88.0783365,0.915841016 85.8590378,0.635338408 83.1201413,0.635338408 C81.8830196,0.624040577 80.6465814,0.695274373 79.4198423,0.84852039 C79.4198423,0.383768451 79.0255511,0.0070125652 78.5391683,0.0070125652 C78.0527854,0.0070125652 77.6584942,0.383768451 77.6584942,0.84852039 C76.4317551,0.695274373 75.1953169,0.624040577 73.9581952,0.635338408 C71.2207665,0.635338408 69,0.915841016 69,1.27207933 C69,1.62831764 71.2192987,1.90882025 73.9581952,1.90882025 C75.1953169,1.92011808 76.4317551,1.84888428 77.6584942,1.69563827 C77.6584565,1.79770992 77.6778536,1.89893655 77.715738,1.99437354 C77.5480869,2.09263294 77.4430612,2.26457654 77.4359784,2.4523838 C77.4288955,2.64019106 77.5206966,2.81891209 77.680511,2.92844723 C77.0444264,3.15759995 76.623074,3.73890482 76.6222343,4.38846331 L76.6222343,5.43473803 C76.6230105,6.29217512 77.3468266,6.98880814 78.2441424,6.99573505 L78.8943735,6.99573505 C79.4112756,6.99574725 79.8975742,6.76159032 80.2051101,6.36460418 C80.475289,6.60526178 80.8281122,6.74340612 81.1973362,6.75310029 L89.7839087,6.98311243 C90.0580199,7.39654688 90.4207008,7.74979034 90.8480565,8.01956957 C90.026094,8.81759949 86.8204403,12.3561399 87.3371025,18.5917129 C87.3371025,18.5917129 87.8552324,19.5103589 89.1865181,18.5917129 C89.1865181,18.5917129 88.3351998,11.6436633 93.1011144,8.78253666 C93.2666056,9.23675575 93.7147597,9.54118253 94.2181027,9.54129622 L94.8272357,9.54129622 C93.4055301,10.077135 92.5832655,11.5030498 92.8686757,12.9376965 C93.1540859,14.3723431 94.4665568,15.4105055 95.9948627,15.4105055 C97.5231687,15.4105055 98.8356395,14.3723431 99.1210498,12.9376965 C99.40646,11.5030498 98.5841954,10.077135 97.1624898,9.54129622 L97.7716227,9.54129622 C98.2749658,9.54118253 98.7231198,9.23675575 98.888611,8.78253666 C103.654526,11.6436633 102.803207,18.5917129 102.803207,18.5917129 C104.134493,19.5103589 104.652623,18.5917129 104.652623,18.5917129 C105.239739,11.4501165 100.952324,7.84565795 100.952324,7.84565795 L100.874531,7.84565795 C101.190166,7.60698038 101.462,7.319744 101.67888,6.99573505 L110.717532,6.75450281 C111.106123,6.74604164 111.476506,6.59544126 111.752324,6.33374889 C112.057446,6.75385883 112.558718,7.00435341 113.093884,7.00415013 L113.744115,7.00415013 C114.647166,7.00415013 115.379233,6.30464003 115.379233,5.4417506 L115.379233,4.39547587 C115.379065,3.7790503 114.999604,3.22033841 114.410492,2.96912011 C114.615517,2.86068332 114.733425,2.64613494 114.710455,2.42329755 C114.687485,2.20046017 114.528037,2.01201504 114.304811,1.94388307 C114.329373,1.86515005 114.341735,1.78340453 114.341506,1.70124832 C115.568244,1.85449888 116.804683,1.92573269 118.041805,1.9144303 C120.779233,1.9144303 123,1.63392769 123,1.27768938 C123,0.921451068 120.783637,0.635338408 118.04474,0.635338408 Z" id="Shape" stroke="none" fill="url(#linearGradient-3)" fill-rule="nonzero"></path>
                    <circle id="Oval" stroke="none" fill="#6C63FF" fill-rule="nonzero" cx="94.5" cy="11.5" r="2.5"></circle>
                    <circle id="Oval" stroke="none" fill="#6C63FF" fill-rule="nonzero" cx="96" cy="14" r="2"></circle>
                    <circle id="Oval" stroke="none" fill="#F5F5F5" fill-rule="nonzero" opacity="0.2" cx="96" cy="14" r="2"></circle>
                    <circle id="Oval" stroke="none" fill="#6C63FF" fill-rule="nonzero" cx="95" cy="13" r="1"></circle>
                    <circle id="Oval" stroke="none" fill="#000000" fill-rule="nonzero" opacity="0.25" cx="95" cy="13" r="1"></circle>
                    <path d="M91.6657471,8.00159964 C91.6657471,8.00159964 87.4773366,11.8823373 88.0546293,19.560631 C88.0546293,19.560631 88.56052,20.5492113 89.8609478,19.560631 C89.8609478,19.560631 88.7777644,9.8251944 96,8 L91.6657471,8.00159964 Z" id="Shape" stroke="none" fill="#6C63FF" fill-rule="nonzero"></path>
                    <path d="M100.328631,8.00159964 C100.328631,8.00159964 104.519001,11.8823373 103.946206,19.560631 C103.946206,19.560631 103.440262,20.5492113 102.139698,19.560631 C102.139698,19.560631 103.222995,9.8251944 96,8 L100.328631,8.00159964 Z" id="Shape" stroke="none" fill="#6C63FF" fill-rule="nonzero"></path>
                    <rect id="Rectangle-path" stroke="none" fill="#6C63FF" fill-rule="nonzero" x="91" y="2" width="12" height="8" rx="4"></rect>
                    <path d="M93.3405208,7.99944439 L82.5704019,7.72675403 C81.6959354,7.70496021 80.9996674,7.05816456 81.0000001,6.26793508 L81.0000001,5.89540726 C81.0000096,5.11522567 81.6795558,4.47314276 82.542359,4.43807842 L93.3124779,4.00147581 C93.7529322,3.98357574 94.1823382,4.12912732 94.501032,4.40434842 C94.8197258,4.67956952 94.9999952,5.06052808 95,5.45880465 L95,6.54211555 C94.9997206,6.93583262 94.8232797,7.3127313 94.5107671,7.587175 C94.1982545,7.8616187 93.7762074,8.01030286 93.3405208,7.99944439 Z" id="Shape" stroke="none" fill="#6C63FF" fill-rule="nonzero"></path>
                    <path d="M98.6594792,7.99944439 L109.429598,7.72675403 C110.304065,7.70496021 111.000333,7.05816456 111,6.26793508 L111,5.89540726 C110.99999,5.11522567 110.320444,4.47314276 109.457641,4.43807842 L98.6875221,4.00147581 C98.2470678,3.98357574 97.8176618,4.12912732 97.498968,4.40434842 C97.1802742,4.67956952 97.0000048,5.06052808 97,5.45880465 L97,6.54211555 C97.0002794,6.93583262 97.1767203,7.3127313 97.4892329,7.587175 C97.8017455,7.8616187 98.2237926,8.01030286 98.6594792,7.99944439 Z" id="Shape" stroke="none" fill="#6C63FF" fill-rule="nonzero"></path>
                    <path d="M93.3405208,7.99944439 L82.5704019,7.72675403 C81.6959354,7.70496021 80.9996674,7.05816456 81.0000001,6.26793508 L81.0000001,5.89540726 C81.0000096,5.11522567 81.6795558,4.47314276 82.542359,4.43807842 L93.3124779,4.00147581 C93.7529322,3.98357574 94.1823382,4.12912732 94.501032,4.40434842 C94.8197258,4.67956952 94.9999952,5.06052808 95,5.45880465 L95,6.54211555 C94.9997206,6.93583262 94.8232797,7.3127313 94.5107671,7.587175 C94.1982545,7.8616187 93.7762074,8.01030286 93.3405208,7.99944439 Z" id="Shape" stroke="none" fill="#F5F5F5" fill-rule="nonzero" opacity="0.2"></path>
                    <path d="M98.6594792,7.99944439 L109.429598,7.72675403 C110.304065,7.70496021 111.000333,7.05816456 111,6.26793508 L111,5.89540726 C110.99999,5.11522567 110.320444,4.47314276 109.457641,4.43807842 L98.6875221,4.00147581 C98.2470678,3.98357574 97.8176618,4.12912732 97.498968,4.40434842 C97.1802742,4.67956952 97.0000048,5.06052808 97,5.45880465 L97,6.54211555 C97.0002794,6.93583262 97.1767203,7.3127313 97.4892329,7.587175 C97.8017455,7.8616187 98.2237926,8.01030286 98.6594792,7.99944439 Z" id="Shape" stroke="none" fill="#F5F5F5" fill-rule="nonzero" opacity="0.2"></path>
                    <rect id="Rectangle-path" stroke="none" fill="#6C63FF" fill-rule="nonzero" x="77" y="4" width="4" height="4" rx="2"></rect>
                    <rect id="Rectangle-path" stroke="none" fill="#6C63FF" fill-rule="nonzero" x="111" y="4" width="4" height="4" rx="2"></rect>
                    <rect id="Rectangle-path" stroke="none" fill="#6C63FF" fill-rule="nonzero" x="79" y="2" width="2" height="2" rx="1"></rect>
                    <rect id="Rectangle-path" stroke="none" fill="#6C63FF" fill-rule="nonzero" x="79" y="0" width="2" height="2" rx="1"></rect>
                    <ellipse id="Oval" stroke="none" fill="#6C63FF" fill-rule="nonzero" cx="75.5" cy="3" rx="4.5" ry="1"></ellipse>
                    <ellipse id="Oval" stroke="none" fill="#6C63FF" fill-rule="nonzero" cx="83.5" cy="3" rx="4.5" ry="1"></ellipse>
                    <rect id="Rectangle-path" stroke="none" fill="#6C63FF" fill-rule="nonzero" x="111" y="2" width="2" height="2" rx="1"></rect>
                    <rect id="Rectangle-path" stroke="none" fill="#6C63FF" fill-rule="nonzero" x="111" y="0" width="2" height="2" rx="1"></rect>
                    <ellipse id="Oval" stroke="none" fill="#6C63FF" fill-rule="nonzero" cx="108.5" cy="3" rx="4.5" ry="1"></ellipse>
                    <ellipse id="Oval" stroke="none" fill="#6C63FF" fill-rule="nonzero" cx="115.5" cy="3" rx="4.5" ry="1"></ellipse>
                    <ellipse id="Oval" stroke="none" fill="#F5F5F5" fill-rule="nonzero" opacity="0.2" cx="75.5" cy="3" rx="4.5" ry="1"></ellipse>
                    <ellipse id="Oval" stroke="none" fill="#F5F5F5" fill-rule="nonzero" opacity="0.2" cx="83.5" cy="3" rx="4.5" ry="1"></ellipse>
                    <ellipse id="Oval" stroke="none" fill="#F5F5F5" fill-rule="nonzero" opacity="0.2" cx="108.5" cy="3" rx="4.5" ry="1"></ellipse>
                    <ellipse id="Oval" stroke="none" fill="#F5F5F5" fill-rule="nonzero" opacity="0.2" cx="115.5" cy="3" rx="4.5" ry="1"></ellipse>
                    <rect id="Rectangle-path" stroke="none" fill="#6C63FF" fill-rule="nonzero" x="94" y="8" width="5" height="2" rx="1"></rect>
                    <rect id="Rectangle-path" stroke="none" fill="#F5F5F5" fill-rule="nonzero" opacity="0.2" x="94" y="8" width="5" height="2" rx="1"></rect>
                    <polygon id="Shape" stroke="none" fill="#67647E" fill-rule="nonzero" points="99.9478138 19 88 19 88 31 99.9478138 31 103 31 103 19"></polygon>
                    <rect id="Rectangle-path" stroke="none" fill="#000000" fill-rule="nonzero" opacity="0.25" x="102" y="19" width="4" height="12"></rect>
                    <rect id="Rectangle-path" stroke="none" fill="#000000" fill-rule="nonzero" opacity="0.25" x="91" y="21" width="2" height="2"></rect>
                    <path d="M95.5647363,17.7572578 C96.0806044,18.3003585 95.9946264,19 95.9946264,19 C95.9946264,19 95.0803935,18.8200313 94.5616594,18.2769306 C94.0429254,17.7338299 93.8451759,17.1779503 94.1317693,17.0341884 C94.4183627,16.8904264 95.0488682,17.2130921 95.5647363,17.7572578 Z" id="Shape" stroke="none" fill="#67647E" fill-rule="nonzero"></path>
                    <path d="M96.4352637,17.7572578 C95.9193956,18.3003585 96.0053736,19 96.0053736,19 C96.0053736,19 96.9196065,18.8200313 97.4383406,18.2769306 C97.9570746,17.7338299 98.1548241,17.1779503 97.8682307,17.0341884 C97.5816373,16.8904264 96.9511318,17.2130921 96.4352637,17.7572578 Z" id="Shape" stroke="none" fill="#67647E" fill-rule="nonzero"></path>
                    <path d="M31.165,51 L31,51.51 C31.0701077,51.345264 31.125328,51.1745829 31.165,51 Z" id="Shape" stroke="none" fill="url(#linearGradient-4)" fill-rule="nonzero"></path>
                    <path d="M75.8877613,92.7095748 C75.8979796,92.6946387 75.9081978,92.6811962 75.9154966,92.6662601 L75.9315539,92.6348943 C75.9388526,92.6199581 75.9476111,92.6065156 75.9534501,92.5915795 L75.9651282,92.5602137 C75.9651282,92.5452776 75.9768062,92.5303415 75.9811854,92.5154054 C75.9855647,92.5004693 75.9811854,92.4959884 75.9884842,92.4855331 C75.9957829,92.4750779 75.9957829,92.4556609 75.9987024,92.4392312 C76.0016219,92.4228015 75.9987024,92.4213079 75.9987024,92.4108526 C75.9987024,92.4003973 75.9987024,92.3794868 75.9987024,92.363057 C75.9987024,92.3466273 75.9987024,92.3466273 75.9987024,92.3376656 C75.9987024,92.328704 75.9987024,92.3048062 75.9987024,92.2883765 C75.9987024,92.2719468 75.9987024,92.2734404 75.9987024,92.2659723 C75.9987024,92.2585043 75.9987024,92.2316193 75.9987024,92.2151895 L75.9987024,92.1957726 C75.9987024,92.1778493 75.9987024,92.1599259 75.9870244,92.1420026 L75.9870244,92.1255729 C75.9870244,92.1061559 75.9753464,92.0882326 75.9695074,92.0688157 L75.9695074,92.0568668 C75.9626952,92.036952 75.9549099,92.017535 75.9461514,91.9986159 L75.9461514,91.9896543 C75.9373929,91.9687437 75.9276612,91.948331 75.9169564,91.9284162 L75.8819223,91.8641909 C75.7474335,91.6509477 75.5780604,91.4629936 75.3812275,91.3085676 C73.8762236,91.9433523 72.0237989,91.2174573 72.0237989,91.2174573 C72.0237989,91.2174573 69.5422212,89.9493815 69.7217707,90.3108354 C69.7816205,90.4333115 69.7509657,90.6767701 69.6838171,90.9486074 C68.4955793,90.6931999 67.8401509,90.0404918 67.4839715,89.4549963 L68.8371612,87.9613852 C68.8371612,87.9613852 63.3470355,84.7904489 62.7281008,83.1594256 C62.1091662,81.5284023 59.0976987,76.9086633 59.0976987,76.9086633 C59.0976987,76.9086633 58.1240444,73.2851628 56.3533657,72.4696512 C56.3533657,72.4696512 52.8222266,68.1531152 50.7595976,64.4519469 C51.4894734,62.5864267 52.5112995,59.6723915 52.2806588,58.4282135 C51.9887085,56.8778452 52.2908771,53.9473802 52.4120364,52.9108141 C53.3915297,53.7472363 57.3751918,57.0585721 58.9210687,56.9794107 C59.4772341,56.9510321 60.0757322,56.6463354 60.6377366,56.2400732 C61.974869,55.3737788 63.1718653,53.8084744 63.1718653,53.8084744 C62.9908561,53.8263977 62.8434212,53.6591133 62.7237216,53.3753272 C64.2024499,51.732355 67.2650087,48.3508195 67.5992919,48.2821134 C68.0372173,48.1910032 70.4326697,43.9342116 69.1042957,43.0275897 C67.7759218,42.1209678 65.3863085,45.3830143 65.2972636,46.0148118 C65.2374138,46.4449718 63.3849891,48.3328962 62.1996708,49.5038873 C62.1996708,49.4740151 62.1996708,49.4575853 62.1996708,49.4575853 L62.0245006,49.547202 C62.0245006,49.4904448 62.0245006,49.4575853 62.0245006,49.4575853 L58.966321,51.0213961 L56.357745,47.3739979 C56.357745,47.3739979 55.6497654,43.4786602 53.8761673,42.8438755 C52.1025691,42.2090908 50.7931719,40.2539539 50.7931719,40.2539539 C50.7767293,40.3174247 50.7635732,40.3817395 50.7537586,40.4466297 C50.6647138,40.3256472 50.616542,40.2539539 50.616542,40.2539539 C50.616542,40.2539539 50.616542,40.2703836 50.604864,40.2972686 C50.4711355,39.7395522 50.4370129,39.1616985 50.5041411,38.5915648 L50.5289569,38.5766287 C50.5391752,38.506429 50.5508532,38.4392165 50.5625312,38.3749912 C52.4337299,37.2137504 53.1959023,34.8285096 52.3565659,32.7605072 C52.8076291,32.4378872 53.4615978,32.2377433 54.0177632,31.9927911 C54.8041894,31.6645131 55.4930925,31.1316034 56.0161631,30.4469036 C55.7114915,30.3688602 55.3919694,30.3755639 55.0906806,30.4663206 C55.052727,30.0466158 55.5286061,29.5701539 55.1578292,29.2505211 C54.9301079,29.0518709 54.5053202,29.0697942 54.1812553,29.1683725 C53.8571905,29.2669509 53.5608609,29.4282609 53.2163596,29.4670947 C52.6164017,29.5417753 52.0485583,29.2445467 51.6208511,28.9234203 C51.1931439,28.6022939 50.7902524,28.2259039 50.2180298,28.0735556 C49.0808833,27.7748334 47.9539551,28.4633881 46.8124294,28.7561359 C44.9789814,29.2251297 43.8929262,29.7269831 43.8038814,30.9218719 C43.5679074,31.0841376 43.3505003,31.2730196 43.1557517,31.4849633 C42.7617349,31.8354191 42.4892724,32.3070434 42.3791638,32.8292133 C42.2244302,33.6417377 42.5455755,34.4721854 42.9338694,35.1950932 C43.1542919,35.6088235 44.2140716,37.7521554 44.9337291,37.4698629 C45.1329234,37.704009 45.3549864,37.9167093 45.5964563,38.1046476 C45.5731003,38.3510934 45.539526,38.6005265 45.5015725,38.8514531 C45.3391844,38.9422164 45.1630061,39.0043245 44.9804411,39.0351673 C44.5842926,39.1104481 44.1819717,39.1464615 43.7790656,39.1427073 C43.1492737,39.1379416 42.5201871,39.098553 41.8945263,39.024712 C41.2863939,38.9528355 40.6747142,38.9169291 40.0625381,38.917172 C39.7573889,38.9161428 39.4523882,38.9310985 39.1487336,38.9619803 L39.1020215,38.9619803 L38.9210123,38.9843845 L38.8932771,38.9843845 L38.6962106,39.0172439 L38.6743143,39.0172439 L38.5137417,39.0501034 L38.4772479,39.0575714 L38.3137557,39.0978989 L38.153183,39.1442009 L38.1269075,39.1516689 L38.0013688,39.1919964 L37.9736336,39.2009581 C37.8787497,39.2338176 37.7897049,39.2696642 37.7050393,39.3055109 L37.6787638,39.3174598 L37.5736616,39.3637617 L37.5546849,39.3727234 L37.436445,39.4294806 L37.4262267,39.4294806 L37.3240441,39.481757 L37.2992283,39.4951995 L37.1999652,39.5474759 L37.0744266,39.6146884 L36.9985195,39.6550159 L36.9634855,39.6744328 L36.8598431,39.7282028 C35.9737739,40.1762861 27.3860554,42.5361916 25.8810515,47.247041 L25.9117063,47.2754196 L25.9452806,47.3067854 C25.9204648,47.3754915 25.895649,47.4441976 25.8737527,47.5129037 C25.8737527,47.5129037 26.0197279,47.6473287 26.2474491,47.8653959 C25.843098,49.6666909 24.7599623,54.2700002 24.1906592,54.4880674 C23.4826796,54.7599047 22.6856553,60.2862656 24.5453788,60.1055387 C26.4051023,59.9248117 26.4051023,55.4857996 26.4051023,55.4857996 C26.4051023,55.4857996 27.6312936,52.1221875 28.5348799,50.41499 C28.6906585,50.6275903 28.8105553,50.8653732 28.8895995,51.1184809 L28.8895995,51.1378978 L28.8895995,51.1199745 C28.9114987,51.1976742 28.9150014,51.2795925 28.8998178,51.3589522 C28.9874029,51.0960767 29.4413856,49.8892389 30.3887644,50.0505489 C31.4003722,50.2238078 35.2220018,46.3717849 35.5840202,46.0028629 C35.5752617,46.1029349 35.5635837,46.2283982 35.5519057,46.3732785 C35.5519057,46.4584143 35.5373082,46.5495246 35.5300094,46.6481029 L35.5300094,46.6794688 L35.5300094,46.7541493 L35.5300094,46.8034385 L35.5300094,46.8796126 L35.5300094,46.9333826 L35.5300094,47.0095568 L35.5300094,47.0782629 L35.5227107,47.1902837 L35.5227107,47.281394 L35.5227107,47.3456193 L35.5227107,47.4367296 L35.5227107,47.4979676 L35.5227107,47.5935587 L35.5227107,47.657784 L35.5227107,47.7623368 L35.5227107,47.8220812 L35.5124924,47.9863784 L35.5124924,48.0087826 L35.5037339,48.1581437 L35.5037339,48.2104201 L35.5037339,48.3358834 L35.5037339,48.3956279 L35.5037339,48.5240784 L35.5037339,48.5778484 L35.4964351,48.7272095 L35.4964351,48.7570818 C35.4964351,48.8218049 35.4935156,48.8870259 35.4876766,48.9527448 L35.4876766,48.9646937 C35.4876766,49.0244381 35.4852437,49.0841826 35.4803779,49.143927 L35.4803779,49.1962034 L35.4803779,49.3455645 L35.4803779,49.405309 C35.4803779,49.455096 35.4803779,49.504883 35.4803779,49.5546701 L35.4803779,49.6054528 C35.4803779,49.7418693 35.4759986,49.8797794 35.4672401,50.0191831 L35.4672401,50.0490553 C35.4672401,50.107804 35.4672401,50.1665527 35.4672401,50.2253014 L35.4672401,50.2790714 C35.4672401,50.3318457 35.4672401,50.38462 35.4672401,50.4373942 L35.4672401,50.4926578 C35.4672401,50.5504108 35.4672401,50.6086616 35.4672401,50.6674103 L35.4672401,50.7017634 C35.4672401,50.8441543 35.4672401,50.987541 35.4672401,51.1319234 C35.4672401,51.1468595 35.4672401,51.1617956 35.4672401,51.1782253 C35.4672401,51.2339868 35.4672401,51.2897483 35.4672401,51.3455097 C35.4672401,51.3644288 35.4672401,51.3838458 35.4672401,51.4037606 C35.4672401,51.4565348 35.4672401,51.509807 35.4672401,51.563577 C35.4672401,51.5785131 35.4672401,51.5934492 35.4672401,51.6083853 C35.4672401,53.5844327 35.58548,55.5963269 36.0190262,56.7434202 C36.2490707,57.360055 36.3716009,58.0132042 36.3810446,58.6731657 C36.3401502,59.8663619 36.034662,61.034429 35.4876766,62.0890542 L35.591319,62.0561948 L35.5723422,62.0905478 L35.6292725,62.0726245 C35.5416874,62.2593259 35.4832974,62.362385 35.4832974,62.362385 C35.4832974,62.362385 35.6117555,62.3205639 35.8409365,62.2518578 C35.5139522,63.4318105 35.2964492,65.2480416 35.9256021,67.5272921 C35.9256021,67.5272921 36.2803217,69.5197693 36.014647,70.2456643 C35.7489722,70.9715592 35.4832974,76.7682638 35.4832974,76.7682638 C35.4832974,76.7682638 34.9519478,77.4926652 33.9782935,77.040101 C33.0046392,76.5875369 21.0521933,75.0476239 21.0521933,75.0476239 C21.0521933,75.0476239 21.024458,75.096913 20.9777459,75.1850361 C20.6098885,75.0670408 20.0799987,74.8863139 19.6931646,74.720523 C19.8391397,74.5144047 19.9690576,74.3964094 20.078539,74.4128392 C20.078539,74.4128392 19.4406275,74.0976872 18.7457858,73.8482542 L18.6187874,73.8034458 L18.4947085,73.7616247 L18.48595,73.7616247 L18.3677101,73.7242845 L18.3545724,73.7242845 L18.2465507,73.6929186 L18.2246545,73.6929186 L18.1224719,73.6660336 L18.0961963,73.6660336 L17.998393,73.6436295 L17.9706577,73.6436295 L17.8830726,73.6257061 L17.8494983,73.6257061 L17.7706717,73.6122636 L17.7327182,73.6122636 L17.6611904,73.603302 L17.6217771,73.603302 L17.5546285,73.603302 L17.4188716,73.603302 L17.3648608,73.603302 L17.3298267,73.603302 L17.2816549,73.6137572 L17.2495404,73.6137572 L17.2086674,73.6286933 L17.1794723,73.6391486 C17.1663693,73.6457851 17.1536925,73.6532683 17.1415188,73.6615528 L17.1196225,73.6749953 C17.1018009,73.6883873 17.0856263,73.703934 17.0714507,73.7212972 C16.6335252,74.2649717 14.1519476,84.6829089 15.300772,85.4073103 L15.4000352,85.4685483 L15.4409082,85.4924461 L15.4934593,85.5223183 L15.5445506,85.5492033 L15.5810444,85.5686203 L15.6365149,85.5955053 L15.6642502,85.6089478 L15.7211805,85.6343392 L15.741617,85.6433008 L15.8000071,85.665705 L15.8131449,85.665705 L15.8729947,85.6851219 L15.8802934,85.6851219 C16.5225841,85.8628616 16.7357079,85.2549619 17.5137554,83.9525331 C18.2757458,82.6769892 19.2552391,81.0683701 20.1106535,80.4724193 C20.1296303,80.515734 20.148607,80.5590487 20.1690436,80.6008698 C20.1690436,80.6008698 29.1114817,81.5971084 32.3871643,82.6919253 C35.6628468,83.7867423 38.2261706,85.2310642 40.3559481,82.6919253 C42.2623837,80.4171557 44.1673595,73.0402106 44.5395962,71.5451059 L44.5950667,71.3210642 L44.5950667,71.3016473 L44.5950667,71.2822303 L51.6777814,76.8085913 L54.776834,80.5232021 C54.776834,80.5232021 59.1152157,86.7739644 59.91224,86.8650747 C60.7092644,86.956185 64.2987935,92.9380973 64.2987935,92.9380973 L64.4330907,92.7887362 C64.4652052,92.954527 64.490021,93.1068754 64.5089978,93.2368195 C64.2170475,93.9552464 64.4871015,94.8215409 64.7527763,95.3921003 L64.7644543,95.4159981 L64.7951091,95.4787297 L64.8111663,95.5115892 L64.8403614,95.56984 L64.8549589,95.5982186 L64.8856137,95.6579631 L64.9016709,95.6863417 L64.925027,95.7296564 L64.936705,95.7520606 L64.9673598,95.8058306 L64.9804975,95.8282347 L64.9994743,95.8596006 L65.0096926,95.8775239 L65.0330486,95.9163578 L65.0418071,95.9312939 L65.0564046,95.9536981 L65.0564046,95.9641533 L65.0710021,95.9880511 L65.0797606,96 C65.0797606,96 74.3769184,93.7356856 75.5272027,93.0127779 C75.5636965,92.9903737 75.5972708,92.9664759 75.6293853,92.9425781 L75.6585803,92.9186804 L75.7169704,92.8708848 L75.7461654,92.8425062 L75.7914177,92.7991915 L75.8176932,92.7678256 L75.8527273,92.7260045 L75.8877613,92.7095748 Z" id="Shape" stroke="none" fill="url(#linearGradient-5)" fill-rule="nonzero"></path>
                    <path d="M23.1283834,74.7319174 C23.1283834,74.7319174 20.9745763,74.2248913 20.8849609,74.0081192 C20.7953456,73.7913471 19,77.9871724 19,77.9871724 L20.7953456,79 C20.7953456,79 22.6803065,78.1316871 23.6675947,78.2762018 C24.6548828,78.4207165 23.1283834,74.7319174 23.1283834,74.7319174 Z" id="Shape" stroke="none" fill="#4C4C56" fill-rule="nonzero"></path>
                    <path d="M68.5307653,88 C68.5307653,88 68.8184135,90.2541561 71.9874185,90.4964779 C75.1564235,90.7387997 69.8747485,92.750634 69.8747485,92.750634 L65.842799,93 C65.842799,93 65.7469163,91.5911524 65.0741122,90.5035221 C64.401308,89.4158918 68.5307653,88 68.5307653,88 Z" id="Shape" stroke="none" fill="#4C4C56" fill-rule="nonzero"></path>
                    <path d="M37.2271673,60.9078977 C37.2271673,60.9078977 35.5834418,63.3667687 36.7085587,67.2682347 C36.7085587,67.2682347 37.0542977,69.1342781 36.7949935,69.8117954 C36.5356892,70.4893127 36.2763849,75.9180634 36.2763849,75.9180634 C36.2763849,75.9180634 35.7577763,76.5970161 34.8113889,76.1721324 C33.8650015,75.7472487 22.1757986,74.306089 22.1757986,74.306089 C22.1757986,74.306089 20.2713039,77.5286024 21.309986,79.4735937 C21.309986,79.4735937 30.051617,80.4066154 33.2540982,81.4243267 C36.4565794,82.4420381 38.9675825,83.7985081 41.0434818,81.4243267 C43.1193811,79.0501454 45.1982104,70.7390754 45.1982104,70.7390754 L52.1217814,75.9065801 L55.151393,79.3831624 C55.151393,79.3831624 59.3925564,85.233926 60.1719342,85.3186157 C60.9513121,85.4033053 64.5859671,91 64.5859671,91 L69,86.336327 C69,86.336327 63.6249298,83.3808014 63.0198864,81.8535167 C62.4148431,80.326232 59.4716662,76.0027531 59.4716662,76.0027531 C59.4716662,76.0027531 58.5194188,72.6108604 56.7892585,71.8472181 C56.7892585,71.8472181 50.5571657,64.5538594 49.9521223,61.1619667 C49.347079,57.770074 39.5638359,59.3834838 39.5638359,59.3834838 L37.2271673,60.9078977 Z" id="Shape" stroke="none" fill="#5F5D7E" fill-rule="nonzero"></path>
                    <path d="M70.0349807,91.6251023 C70.0349807,91.6251023 70.6750207,90.3709622 70.4987778,90.0564318 C70.3225349,89.7419014 72.8625973,90.8447484 72.8625973,90.8447484 C72.8625973,90.8447484 74.7811715,91.4724821 76.3333459,90.9230492 C76.3333459,90.9230492 77.7030935,91.7856853 76.5157728,92.4120918 C75.3284521,93.0384983 65.7386731,95 65.7386731,95 C65.7386731,95 64.2777121,93.1964271 65.4650328,92.1771894 L70.0349807,91.6251023 Z" id="Shape" stroke="none" fill="#986365" fill-rule="nonzero"></path>
                    <path d="M64.7380166,81.6602591 C64.1027652,80.1033915 61.0216422,75.6905579 61.0216422,75.6905579 C61.0216422,75.6905579 60.0242668,72.229713 58.2121123,71.4505469 C58.2121123,71.4505469 51.6846736,64.0089249 51.0509566,60.54808 C50.9205306,59.8348208 50.3804134,59.3383221 49.6070638,59 L48.3426986,62.6248799 L46.6164719,67.5752208 C46.2835019,68.5301387 45.9674107,69.5949014 46.0027024,70.5820404 C46.0472007,70.4180054 46.070217,70.3272003 46.070217,70.3272003 L53.3219038,75.5997528 L56.4950921,79.147009 C56.4950921,79.147009 60.9372489,85.1167101 61.7535624,85.2031214 C62.5698758,85.2895327 66.3767812,91 66.3767812,91 L71,86.2415214 C71,86.2415214 65.3717336,83.2185912 64.7380166,81.6602591 Z" id="Shape" stroke="none" fill="#000000" fill-rule="nonzero" opacity="0.1"></path>
                    <path d="M50.5621013,38.3133179 C50.5621013,38.3133179 49.9715211,39.9795654 50.736913,41.5303564 C51.5023048,43.0811474 50.4227244,45.8324238 49.7246587,45.9911765 C49.026593,46.1499292 46.2355113,44.1307521 46.026446,42.8134982 C45.8173806,41.4962442 46.933577,38.783016 46.380794,37 L50.5621013,38.3133179 Z" id="Shape" stroke="none" fill="#FDC2CC" fill-rule="nonzero"></path>
                    <path d="M46.9376822,42 C46.9376822,42 49.7081065,47.398301 52.7478566,43.5417501 C52.7478566,43.5417501 55.7876066,49.4534844 54.8041136,50.396229 C54.1047493,51.0485706 53.3579378,51.6524794 52.5693148,52.203398 L50.9609253,63 C50.9609253,63 41.8431882,60.0006216 38,60.5155052 L43.9009583,46.9776918 L46.9376822,42 Z" id="Shape" stroke="none" fill="#000000" fill-rule="nonzero" opacity="0.1"></path>
                    <path d="M46.9376822,42 C46.9376822,42 49.7081065,47.4001658 52.7478566,43.5422827 C52.7478566,43.5422827 55.7876066,49.4560591 54.8041136,50.3991295 C54.1044928,51.0491991 53.3576876,51.6508872 52.5693148,52.1996684 L50.9609253,63 C50.9609253,63 41.8431882,59.9995855 38,60.514647 L43.9009583,46.972157 L46.9376822,42 Z" id="Shape" stroke="none" fill="#D39999" fill-rule="nonzero"></path>
                    <path d="M27.5619395,47 C27.5619395,47 26.2846473,53.5432588 25.6753789,53.7945949 C25.0661106,54.0459311 24.3980868,59.1635319 25.9768199,58.9959745 C27.555553,58.8284171 27.5619395,54.7175807 27.5619395,54.7175807 C27.5619395,54.7175807 29.2224193,49.7675372 29.9006615,49.1796663 C30.5789036,48.5917954 27.5619395,47 27.5619395,47 Z" id="Shape" stroke="none" fill="#FDC2CC" fill-rule="nonzero"></path>
                    <path d="M63,51.9912361 C63,51.9912361 66.8514954,47.9840873 66.9369554,47.3154216 C67.0224155,46.6467559 69.3327333,43.2129799 70.6160823,44.1659093 C71.8994313,45.1188387 69.5891134,49.6040673 69.1676072,49.7009753 C68.7461009,49.7978834 63.6909226,56 63.6909226,56 L63,51.9912361 Z" id="Shape" stroke="none" fill="#FDC2CC" fill-rule="nonzero"></path>
                    <path d="M46.3919916,40 C46.3919916,40 45.9125395,40.5807088 42.6876712,40.2238148 C39.462803,39.8669209 38.6779768,40.4914853 37.8075869,40.939115 C36.937197,41.3867447 28.4826133,43.7080676 27,48.3492011 C27,48.3492011 30.3119073,51.3873364 29.9637513,52.1903478 C29.9637513,52.1903478 30.4063224,50.6780853 31.4389884,50.8504833 C32.4716544,51.0228812 36.5816649,46.8293773 36.5816649,46.8293773 C36.5816649,46.8293773 35.7968388,54.6931422 36.8427819,57.4605825 C37.888725,60.2280229 36.3205479,63 36.3205479,63 C36.3205479,63 43.7291886,60.58038 47.0410959,61.7493589 C47.0410959,61.7493589 48.9589041,52.9041357 47.3022129,49.3306595 C45.6455216,45.7571832 48,42.362154 48,42.362154 L46.3919916,40 Z" id="Shape" stroke="none" fill="#000000" fill-rule="nonzero" opacity="0.1"></path>
                    <path d="M46.3879056,40 C46.3879056,40 45.9085546,40.5805943 42.6843658,40.2237707 C39.460177,39.8669471 38.6755162,40.4913884 37.8053097,40.9389298 C36.9351032,41.3864712 28.4823009,43.7073363 27,48.3475546 C27,48.3475546 30.3112094,51.3850907 29.9631268,52.1879437 C29.9631268,52.1879437 30.4056047,50.6759795 31.4380531,50.8483434 C32.4705015,51.0207073 36.579646,46.8280305 36.579646,46.8280305 C36.579646,46.8280305 35.7949853,54.6902445 36.840708,57.4571391 C37.8864307,60.2240337 36.320059,63 36.320059,63 C36.320059,63 43.7271386,60.5808572 47.0383481,61.7496056 C47.0383481,61.7496056 48.9557522,52.9061267 47.29941,49.3333552 C45.6430678,45.7605837 48,42.3647121 48,42.3647121 L46.3879056,40 Z" id="Shape" stroke="none" fill="#000000" fill-rule="nonzero" opacity="0.1"></path>
                    <path d="M46.3879056,40 C46.3879056,40 45.9085546,40.5807088 42.6843658,40.2238148 C39.460177,39.8669209 38.6755162,40.4914853 37.8053097,40.939115 C36.9351032,41.3867447 28.4823009,43.7080676 27,48.3492011 C27,48.3492011 30.3112094,51.3873364 29.9631268,52.1903478 C29.9631268,52.1903478 30.4056047,50.6780853 31.4380531,50.8504833 C32.4705015,51.0228812 36.579646,46.8293773 36.579646,46.8293773 C36.579646,46.8293773 35.7949853,54.6931422 36.840708,57.4605825 C37.8864307,60.2280229 36.3185841,63 36.3185841,63 C36.3185841,63 43.7256637,60.58038 47.0368732,61.7493589 C47.0368732,61.7493589 48.9542773,52.9041357 47.2979351,49.3306595 C45.6415929,45.7571832 48,42.3651785 48,42.3651785 L46.3879056,40 Z" id="Shape" stroke="none" fill="#EC7580" fill-rule="nonzero"></path>
                    <path d="M52.3854673,42 C52.3854673,42 53.6972807,43.882932 55.5050423,44.4967382 C57.3128039,45.1105444 58.0368269,48.8764085 58.0368269,48.8764085 L60.7492346,52.467323 L64.0050423,50.8957419 C64.0050423,50.8957419 64.0953539,55.1879374 65,55.1004626 C65,55.1004626 62.73915,57.9041039 60.9298577,57.9915787 C59.1205655,58.0790535 54.0585269,53.8609892 54.0585269,53.8609892 C54.0585269,53.8609892 53.5166577,57.7158107 53.8779038,59.554264 C54.23915,61.3927174 51.6170538,67 51.6170538,67 L48,66.298719 C48,66.298719 49.8996038,59.2918396 52.2507654,58.1531847 C52.2507654,58.1531847 52.2507654,53.4236152 51.8895192,52.2849603 C51.528273,51.1463053 54.2406807,46.8541098 53.8794345,45.9778793 C53.6758509,45.4871308 52.8798847,44.4359507 52.4773096,43.481141 C52.292534,43.0078303 52.2605069,42.4913291 52.3854673,42 Z" id="Shape" stroke="none" fill="#000000" fill-rule="nonzero" opacity="0.1"></path>
                    <path d="M52.386603,42 C52.386603,42 53.6982984,43.8822623 55.5058972,44.4958501 C57.313496,45.109438 58.0374539,48.8739625 58.0374539,48.8739625 L60.7496174,52.4635997 L64.0051319,50.8881314 C64.0051319,50.8881314 64.0954353,55.1788001 65,55.0913564 C65,55.0913564 62.7393536,57.8940005 60.9302242,57.9814442 C59.1210948,58.0688878 54.0579815,53.8656628 54.0579815,53.8656628 C54.0579815,53.8656628 53.516161,57.7191131 53.8773746,59.5569125 C54.2385883,61.3947119 51.6167282,67 51.6167282,67 L48,66.2989685 C48,66.2989685 49.8994328,59.2945815 52.2503826,58.1563315 C52.2503826,58.1563315 52.2503826,53.4284444 51.889169,52.2901945 C51.5279553,51.1519445 54.2401188,46.8612758 53.8789052,45.9853569 C53.6753399,45.494783 52.8794454,44.4439768 52.4769065,43.4895068 C52.2907575,43.0135162 52.2592497,42.4938123 52.386603,42 Z" id="Shape" stroke="none" fill="#000000" fill-rule="nonzero" opacity="0.1"></path>
                    <path d="M52.3850725,42 C52.3850725,42 53.6967678,43.8822623 55.5043666,44.4958501 C57.3119654,45.109438 58.0359233,48.8739625 58.0359233,48.8739625 L60.7496174,52.4635997 L64.0051319,50.8881314 C64.0051319,50.8881314 64.0954353,55.1788001 65,55.0913564 C65,55.0913564 62.7393536,57.8940005 60.9302242,57.9814442 C59.1210948,58.0688878 54.0579815,53.8656628 54.0579815,53.8656628 C54.0579815,53.8656628 53.516161,57.7191131 53.8773746,59.5569125 C54.2385883,61.3947119 51.6167282,67 51.6167282,67 L48,66.2989685 C48,66.2989685 49.8994328,59.2945815 52.2503826,58.1563315 C52.2503826,58.1563315 52.2503826,53.4284444 51.889169,52.2901945 C51.5279553,51.1519445 54.2401188,46.8612758 53.8789052,45.9853569 C53.6753399,45.494783 52.8794454,44.4439768 52.4769065,43.4895068 C52.2902496,43.0136692 52.2582077,42.4939625 52.3850725,42 Z" id="Shape" stroke="none" fill="#EC7580" fill-rule="nonzero"></path>
                    <path d="M52.3850725,42 C52.3850725,42 53.6967678,43.8822623 55.5043666,44.4958501 C57.3119654,45.109438 58.0359233,48.8739625 58.0359233,48.8739625 L60.7496174,52.4635997 L64.0051319,50.8881314 C64.0051319,50.8881314 64.0954353,55.1788001 65,55.0913564 C65,55.0913564 62.7393536,57.8940005 60.9302242,57.9814442 C59.1210948,58.0688878 54.0579815,53.8656628 54.0579815,53.8656628 C54.0579815,53.8656628 53.516161,57.7191131 53.8773746,59.5569125 C54.2385883,61.3947119 51.6167282,67 51.6167282,67 L48,66.2989685 C48,66.2989685 49.8994328,59.2945815 52.2503826,58.1563315 C52.2503826,58.1563315 52.2503826,53.4284444 51.889169,52.2901945 C51.5279553,51.1519445 54.2401188,46.8612758 53.8789052,45.9853569 C53.6753399,45.494783 52.8794454,44.4439768 52.4769065,43.4895068 C52.2902496,43.0136692 52.2582077,42.4939625 52.3850725,42 Z" id="Shape" stroke="none" fill="#000000" fill-rule="nonzero" opacity="0.05"></path>
                    <path d="M21.3893122,73.8507433 C21.3893122,73.8507433 19.1729815,72.5968663 18.7900078,73.1335924 C18.4070341,73.6703185 16.2670393,83.9712144 17.2607007,84.6883653 C18.2543622,85.4055163 18.3306981,84.867274 19.1716876,83.2555796 C20.0126771,81.6438851 21.1590105,79.4939483 22,79.5834027 C22,79.5834027 19.5533675,78.5978886 19.6309973,78.2400712 C19.7086271,77.8822538 20.8549605,73.761289 21.3893122,73.8507433 Z" id="Shape" stroke="none" fill="#986365" fill-rule="nonzero"></path>
                    <path d="M46.1509168,39.803829 C47.5014607,41.2518018 49.3373758,41.3977793 50.7940762,40.1730165 C50.8343019,39.771677 50.9032989,39.3771739 51,38.9956078 L46,37 C46.2059238,37.8321685 46.2200282,38.8060251 46.1509168,39.803829 Z" id="Shape" stroke="none" fill="#000000" fill-rule="nonzero" opacity="0.1"></path>
                    <path d="M50.9935154,35.9840606 C52.0533198,36.0542945 53.3486363,35.9013659 53.7387032,35.3462918 C53.8520434,35.1865664 53.8755946,35.0064505 53.9904067,34.8512563 C54.3230676,34.3913378 55.2739476,34.2032922 56.0378899,33.9450129 C56.8100451,33.7024786 57.4864307,33.3088502 58,32.8031461 C57.7004968,32.7455404 57.3864251,32.7506248 57.0903346,32.8178726 C57.0535358,32.508617 57.5172002,32.155182 57.1565723,31.9195587 C56.9328359,31.773427 56.5162739,31.7870206 56.1968606,31.8595201 C55.8774473,31.9320196 55.588945,32.050964 55.2489244,32.086081 C54.6601442,32.1415884 54.102275,31.9218243 53.6812971,31.6839354 C53.2603193,31.4460465 52.8658365,31.1685095 52.3035514,31.0563618 C51.1878129,30.829801 50.0794342,31.3452269 48.9592798,31.5604598 C46.661565,32.0033862 45.5472984,32.4836953 46.1714055,34.0209107 C46.6335979,35.1593791 49.0652602,35.8560538 50.9935154,35.9840606 Z" id="Shape" stroke="none" fill="#865A61" fill-rule="nonzero"></path>
                    <circle id="Oval" stroke="none" fill="#FDC2CC" fill-rule="nonzero" cx="50.5" cy="36.5" r="4.5"></circle>
                    <path d="M47.1867823,35.3732805 C47.3752369,34.4987394 47.9195148,33.6830038 48.6772867,33.4402432 C49.3217223,33.2336706 50.0070116,33.4583372 50.6369507,33.7191917 C51.2668898,33.9800461 51.9086896,34.2846277 52.5768468,34.2393928 C53.2450039,34.1941579 53.9461076,33.6664176 53.9961865,32.903456 C54.0083021,32.7854101 53.9914164,32.665837 53.9474255,32.558163 C53.8794096,32.4315209 53.7835228,32.3275319 53.6693562,32.2565972 C52.6901831,31.5418861 51.5765879,30.9794657 50.4155495,31.0005753 C49.460098,31.0186693 48.5468182,31.4287989 47.6585777,31.8328971 C46.5383932,32.3425435 45.2640185,33.0557467 45.0333923,34.4097775 C44.9016059,35.2089271 45.1796752,36.0216471 45.521002,36.7363582 C45.7186816,37.1495035 46.675451,39.3177621 47.3080258,38.9604065 C47.5636915,38.8216862 47.0655388,35.934193 47.1867823,35.3732805 Z" id="Shape" stroke="none" fill="#000000" fill-rule="nonzero" opacity="0.1"></path>
                    <path d="M47.1867823,35.3732805 C47.3752369,34.4987394 47.9195148,33.6830038 48.6772867,33.4402432 C49.3217223,33.2336706 50.0070116,33.4583372 50.6369507,33.7191917 C51.2668898,33.9800461 51.9086896,34.2846277 52.5768468,34.2393928 C53.2450039,34.1941579 53.9461076,33.6664176 53.9961865,32.903456 C54.0083021,32.7854101 53.9914164,32.665837 53.9474255,32.558163 C53.8794096,32.4315209 53.7835228,32.3275319 53.6693562,32.2565972 C52.6901831,31.5418861 51.5765879,30.9794657 50.4155495,31.0005753 C49.460098,31.0186693 48.5468182,31.4287989 47.6585777,31.8328971 C46.5383932,32.3425435 45.2640185,33.0557467 45.0333923,34.4097775 C44.9016059,35.2089271 45.1796752,36.0216471 45.521002,36.7363582 C45.7186816,37.1495035 46.675451,39.3177621 47.3080258,38.9604065 C47.5636915,38.8216862 47.0668567,35.934193 47.1867823,35.3732805 Z" id="Shape" stroke="none" fill="#865A61" fill-rule="nonzero"></path>
                    <path d="M17.605445,84.7860387 C16.3780352,84.068282 19.0214411,73.7586853 19.4945053,73.2215058 C19.7006717,72.9863001 20.343144,73.0940395 21,73.2913088 C20.2552436,73.0439635 19.4481578,72.8618687 19.2116257,73.1395632 C18.7321687,73.6767427 16.0951557,83.9863393 17.3225654,84.7040961 C17.5312616,84.8388295 17.7625663,84.9388901 18.0065906,85 C17.8680237,84.9372092 17.7340123,84.8657308 17.605445,84.7860387 Z" id="Shape" stroke="none" fill="#FFFFFF" fill-rule="nonzero" opacity="0.5"></path>
                    <path d="M76.8447083,90 C76.9725001,90.295203 76.9341626,90.6479705 76.4054237,90.9476015 C75.1786218,91.6457565 65.2699603,93.8258303 65.2699603,93.8258303 C65.1714462,93.6894151 65.081317,93.5479862 65,93.402214 C65.1053421,93.6094738 65.2270742,93.8092771 65.3642068,94 C65.3642068,94 75.2680761,91.8199262 76.4996702,91.1217712 C77.1338373,90.7616236 77.0619544,90.3306273 76.8447083,90 Z" id="Shape" stroke="none" fill="#FFFFFF" fill-rule="nonzero" opacity="0.5"></path>
                    <g id="Group" opacity="0.05" stroke="none" stroke-width="1" fill="none" fill-rule="evenodd" transform="translate(27.000000, 40.000000)">
                        <path d="M3.59108516,11.5132867 C2.85518248,10.3000686 0.822832117,8.42956259 0.822832117,8.42956259 C2.32161557,3.71183326 10.9171387,1.3529686 11.8029197,0.904538599 C12.2915231,0.654216372 12.7531484,0.348608254 13.6194453,0.185822021 C12.2705401,0.287179487 11.7025012,0.683395036 11.0954939,0.99514603 C10.2097129,1.45586179 1.6216837,3.80704785 0.115406326,8.52017003 C0.115406326,8.52017003 3.34978102,11.4856438 3.14145012,12.370218 C3.24209776,12.060196 3.39420843,11.7702977 3.59108516,11.5132867 Z" id="Shape" fill="#000000" fill-rule="nonzero"></path>
                        <path d="M3.22013625,12.3717537 L3.11746959,12.6948307 C3.16098889,12.5906382 3.19535359,12.4824975 3.22013625,12.3717537 Z" id="Shape" fill="#000000" fill-rule="nonzero"></path>
                        <path d="M20.1522336,0.66951373 L20.0145618,0.033785822 C20.0145618,0.033785822 19.862718,0.593226381 19.2189002,1.0128068 C19.5321143,0.964352266 19.8439322,0.8496613 20.1522336,0.66951373 Z" id="Shape" fill="#000000" fill-rule="nonzero"></path>
                        <path d="M4.7196691,11.6442068 C5.04293204,11.5612945 5.35858442,11.3295217 5.65300243,10.9588921 C5.32756909,11.0075629 5.00956492,11.2410625 4.7196691,11.6442068 Z" id="Shape" fill="#000000" fill-rule="nonzero"></path>
                        <path d="M16.2393187,22.2112751 C17.8235328,21.7873537 19.3702774,21.7800447 20.4718832,22.6973229 C20.4718832,22.6973229 20.4928662,22.4707442 20.5273382,22.0650953 C19.3193187,21.4913396 17.7680779,21.6923368 16.2393187,22.2112751 Z" id="Shape" fill="#000000" fill-rule="nonzero"></path>
                        <path d="M10.3670852,23.1617167 C10.6668418,22.547429 11.7414696,20.1179213 10.8167202,17.6838064 C9.75408273,14.8719046 10.5514355,6.88770053 10.5514355,6.88770053 C10.5514355,6.88770053 10.2516788,7.19484437 9.78405839,7.65556013 C9.620691,9.63510215 9.23400487,15.4631565 10.1092944,17.7805567 C11.1719319,20.5924585 9.57872506,23.4058961 9.57872506,23.4058961 C9.57872506,23.4058961 9.8739854,23.3045386 10.3670852,23.1617167 Z" id="Shape" fill="#000000" fill-rule="nonzero"></path>
                    </g>
                    <path d="M116,90.0405189 C114.949433,90.5756193 113.848698,91.0378176 112.762718,91.498558 C108.750789,93.1723869 104.678365,94.8607961 100.368383,95.4352636 C92.2796034,96.5127544 83.9252313,93.5952182 75.9736751,95.4104769 C69.31172,96.9297536 63.8021429,101.585272 57.2936415,103.658604 C54.267358,104.622368 51.1186067,105 47.9418205,105 L47.5242495,105 C47.1307785,104.99514 46.7402586,104.98542 46.3526897,104.970839 C43.1316381,104.85128 39.8973068,104.380333 36.7397024,103.778163 C26.7696402,101.882712 16.6225161,98.4082053 9,92.0117878 C31.1961885,87.9978061 76.9150544,81.8477972 116,90.0405189 Z" id="Shape" stroke="none" fill="#252223" fill-rule="nonzero" opacity="0.1"></path>
                    <path d="M94.4259078,65 C94.4259078,65 97.6844871,67.9520762 95.8454536,72.3330666 C94.0064202,76.7140571 99,84 99,84 L98.8473065,83.9771982 C92.1539632,82.913113 88.828266,75.9722378 92.5499595,70.8205456 C93.9325904,68.9036723 95.0685627,66.6569326 94.4259078,65 Z" id="Shape" stroke="none" fill="#6C63FF" fill-rule="nonzero"></path>
                    <path d="M92.5683004,65 C92.5683004,65 93.9535736,68.6194096 92.5683004,71.5714857 C91.1830272,74.5235619 92.3315446,82.8097448 96,84" id="Shape" stroke="#535461" stroke-width="1" fill="none"></path>
                    <path d="M88,77.0371625 C88,77.0371625 90.9856287,76.4968486 91.2577844,79.5366887 C91.5299401,82.5765289 97,82.9974534 97,82.9974534 L96.8976048,83.0755158 C92.3814371,86.4429117 88.0646707,85.2184041 88.7154192,80.7489513 C88.9579341,79.0866822 88.9363772,77.4167599 88,77.0371625 Z" id="Shape" stroke="none" fill="#6C63FF" fill-rule="nonzero"></path>
                    <path d="M88,77.0371625 C88,77.0371625 90.9856287,76.4968486 91.2577844,79.5366887 C91.5299401,82.5765289 97,82.9974534 97,82.9974534 L96.8976048,83.0755158 C92.3814371,86.4429117 88.0646707,85.2184041 88.7154192,80.7489513 C88.9579341,79.0866822 88.9363772,77.4167599 88,77.0371625 Z" id="Shape" stroke="none" fill="#F5F5F5" fill-rule="nonzero" opacity="0.2"></path>
                    <path d="M88,77 C88,77 90.3177122,77.4259573 90.1277137,79.1883836 C89.9377152,80.9508099 93.5705944,83.0636931 97,81.3891627" id="Shape" stroke="#535461" stroke-width="1" fill="none"></path>
                    <path d="M100,81.9780107 C100,81.9780107 97.9618296,81.5747023 97.4193896,81.0384032 C96.8769497,80.5021042 94.4308528,79.5610512 94.1589018,80.2332319 C93.8869508,80.9054126 90.4904874,83.187936 92.8006088,83.5912444 C95.1107303,83.9945529 98.2352427,84.128989 98.9136581,83.8601167 C99.5920735,83.5912444 100,81.9780107 100,81.9780107 Z" id="Shape" stroke="none" fill="#A8A8A8" fill-rule="nonzero"></path>
                    <path d="M92.7950874,83.3538833 C95.1055729,83.7506621 98.2305776,83.8829217 98.9090999,83.6184025 C99.4267656,83.4164577 99.7864994,82.4508204 99.9327327,82 L100,82.0142215 C100,82.0142215 99.5920092,83.5999146 98.9134869,83.8630117 C98.2349646,84.1261088 95.1114222,83.9952713 92.7994744,83.5984925 C92.1326507,83.4847208 91.9425475,83.2159351 92.0142018,82.87462 C92.0668458,83.097897 92.305206,83.2685545 92.7950874,83.3538833 Z" id="Shape" stroke="none" fill="#000000" fill-rule="nonzero" opacity="0.2"></path>
                    <path d="M141,85.9589204 C141,85.9589204 137.434074,85.1528817 136.483161,84.0781636 C135.532247,83.0034454 131.253136,81.1226886 130.77768,82.4660863 C130.302223,83.809484 124.359013,88.3770363 128.400396,89.1830749 C132.441778,89.9891135 137.909531,90.2577931 139.096696,89.720434 C140.283862,89.1830749 141,85.9589204 141,85.9589204 Z" id="Shape" stroke="none" fill="#A8A8A8" fill-rule="nonzero"></path>
                    <path d="M128.399769,88.7065559 C132.441826,89.4988386 137.910492,89.7629328 139.097855,89.2347444 C140.003146,88.8328618 140.632272,86.900545 140.880378,86 L141,86.0278857 C141,86.0278857 140.286696,89.1970166 139.097855,89.7252051 C137.909015,90.2533936 132.44035,89.9892993 128.399769,89.1970166 C127.233081,88.9690098 126.89932,88.4309793 127.02485,87.7518798 C127.125273,88.1947708 127.531399,88.5359608 128.399769,88.7065559 Z" id="Shape" stroke="none" fill="#000000" fill-rule="nonzero" opacity="0.2"></path>
                </g>
            </g>
        </g>
    </g>
</svg>