<svg data-v-5f19e91b="" xmlns="http://www.w3.org/2000/svg" width="422" height="74" viewBox="0 0 422 74"><!----> <!----> <!----> <g data-v-5f19e91b="" id="3367bb7e-e016-f36e-20b2-27f6d74ed6b7" fill="white" transform="matrix(6.322444195736564,0,0,6.322444195736564,94.28532252757296,-17.34355106667099)"><path d="M5.15 7.99C6.20 7.71 6.75 7.04 6.75 6.05C6.75 4.67 5.63 3.82 3.78 3.82L1.17 3.82L1.17 13.15L4.20 13.15C6.29 13.15 7.58 12.12 7.58 10.47C7.58 9.11 6.71 8.21 5.15 7.99ZM5.29 6.17C5.29 7 4.70 7.51 3.69 7.51L2.65 7.51L2.65 4.93L3.73 4.93C4.74 4.93 5.29 5.37 5.29 6.17ZM4.01 12.05L2.65 12.05L2.65 8.72L3.97 8.72C5.24 8.72 6.04 9.32 6.04 10.37C6.04 11.40 5.28 12.05 4.01 12.05ZM15.25 9.70C15.25 7.73 13.93 6.36 12.00 6.36C10.02 6.36 8.59 7.89 8.59 9.84C8.59 11.80 10.00 13.31 12.18 13.31C13.31 13.31 14.28 12.92 14.88 12.25L13.90 11.46C13.48 11.94 12.91 12.19 12.16 12.19C10.92 12.19 10.18 11.33 10.08 10.15L15.25 10.15ZM12.00 7.50C13.04 7.50 13.71 8.12 13.85 9.17L10.14 9.17C10.34 8.17 11.03 7.50 12.00 7.50ZM26.34 5.07L26.34 3.82L20.65 3.82L20.65 13.15L22.14 13.15L22.14 9.07L25.61 9.07L25.61 7.90L22.14 7.90L22.14 5.07ZM30.39 6.36C29.60 6.36 29.08 6.74 28.70 7.41L28.53 6.53L27.30 6.53L27.30 13.15L28.71 13.15L28.71 9.70C28.71 8.62 29.28 7.66 30.32 7.66C30.55 7.66 30.77 7.70 30.96 7.79L31.38 6.58C31.21 6.47 30.83 6.36 30.39 6.36ZM38.57 9.70C38.57 7.73 37.25 6.36 35.32 6.36C33.34 6.36 31.91 7.89 31.91 9.84C31.91 11.80 33.32 13.31 35.50 13.31C36.63 13.31 37.60 12.92 38.19 12.25L37.22 11.46C36.79 11.94 36.23 12.19 35.48 12.19C34.24 12.19 33.50 11.33 33.40 10.15L38.57 10.15ZM35.32 7.50C36.36 7.50 37.03 8.12 37.17 9.17L33.45 9.17C33.66 8.17 34.34 7.50 35.32 7.50ZM46.27 9.70C46.27 7.73 44.95 6.36 43.02 6.36C41.04 6.36 39.61 7.89 39.61 9.84C39.61 11.80 41.02 13.31 43.20 13.31C44.33 13.31 45.30 12.92 45.89 12.25L44.92 11.46C44.49 11.94 43.93 12.19 43.18 12.19C41.94 12.19 41.20 11.33 41.10 10.15L46.27 10.15ZM43.02 7.50C44.06 7.50 44.73 8.12 44.87 9.17L41.15 9.17C41.36 8.17 42.04 7.50 43.02 7.50ZM50.76 6.36C49.98 6.36 49.45 6.74 49.07 7.41L48.90 6.53L47.67 6.53L47.67 13.15L49.09 13.15L49.09 9.70C49.09 8.62 49.66 7.66 50.69 7.66C50.93 7.66 51.14 7.70 51.33 7.79L51.76 6.58C51.58 6.47 51.20 6.36 50.76 6.36Z"></path></g> <!----> <g data-v-5f19e91b="" id="d041253d-99a6-6835-de98-4aef2176f706" transform="matrix(0.9044112311469183,0,0,0.9044112311469183,-4.363035133978457,-7.956680623896844)" stroke="none" fill="white"><path d="M54.621,8.908c-1.974,0-3.575,1.602-3.575,3.578c0,1.976,1.602,3.578,3.575,3.578c18.493,0,33.54,15.047,33.54,33.543  c0,18.495-15.047,33.542-33.54,33.542c-16.971,0-31.03-12.676-33.23-29.056l2.504,2.505c0.699,0.699,1.614,1.047,2.53,1.047  c0.916,0,1.831-0.348,2.53-1.047c1.397-1.398,1.397-3.663,0-5.061l-8.922-8.922c-1.397-1.397-3.663-1.397-5.06,0l-8.922,8.922  c-1.397,1.397-1.397,3.662,0,5.061c1.397,1.396,3.663,1.396,5.061,0l3.012-3.012c2.007,20.579,19.403,36.719,40.498,36.719  c22.439,0,40.697-18.258,40.697-40.698C95.318,27.166,77.061,8.908,54.621,8.908z"></path><path d="M41.141,69.414c-0.971,0-1.941-0.369-2.682-1.11c-1.481-1.481-1.482-3.883-0.001-5.364l11.856-11.86V27.108  c0-2.095,1.698-3.793,3.791-3.793c2.094,0,3.79,1.698,3.79,3.793v25.541c0,1.006-0.398,1.97-1.109,2.682L43.823,68.303  C43.083,69.043,42.112,69.414,41.141,69.414z"></path><path d="M81.644,51.94h-3.926c-1.381,0-2.5-1.119-2.5-2.5s1.119-2.5,2.5-2.5h3.926c1.381,0,2.5,1.119,2.5,2.5  S83.024,51.94,81.644,51.94z"></path><path d="M72.316,71.539c-0.64,0-1.279-0.244-1.768-0.732l-2.776-2.776c-0.977-0.977-0.977-2.559,0-3.535s2.559-0.977,3.535,0  l2.776,2.776c0.977,0.977,0.977,2.559,0,3.535C73.596,71.295,72.956,71.539,72.316,71.539z"></path><path d="M52.719,79.657c-1.381,0-2.5-1.119-2.5-2.5V73.23c0-1.381,1.119-2.5,2.5-2.5s2.5,1.119,2.5,2.5v3.927  C55.219,78.538,54.1,79.657,52.719,79.657z"></path><path d="M69.541,35.117c-0.64,0-1.279-0.244-1.768-0.732c-0.977-0.977-0.977-2.559,0-3.536l2.775-2.776  c0.975-0.977,2.559-0.976,3.535,0c0.977,0.977,0.977,2.559,0,3.536l-2.775,2.776C70.821,34.873,70.181,35.117,69.541,35.117z"></path></g></svg>