<?xml version="1.0" encoding="UTF-8"?>
<svg width="120px" height="120px" viewBox="0 0 120 120" version="1.1" xmlns="http://www.w3.org/2000/svg" xmlns:xlink="http://www.w3.org/1999/xlink">
    <!-- Generator: Sketch 48.2 (47327) - http://www.bohemiancoding.com/sketch -->
    <title>record-transaction</title>
    <desc>Created with Sketch.</desc>
    <defs>
        <circle id="path-1" cx="60" cy="60" r="60"></circle>
        <linearGradient x1="49.9999955%" y1="99.9890645%" x2="49.9999955%" y2="-0.00273388376%" id="linearGradient-3">
            <stop stop-color="#808080" stop-opacity="0.25" offset="0%"></stop>
            <stop stop-color="#808080" stop-opacity="0.12" offset="54%"></stop>
            <stop stop-color="#808080" stop-opacity="0.1" offset="100%"></stop>
        </linearGradient>
        <linearGradient x1="87833%" y1="64377%" x2="87833%" y2="17507%" id="linearGradient-4">
            <stop stop-color="#808080" stop-opacity="0.25" offset="0%"></stop>
            <stop stop-color="#808080" stop-opacity="0.12" offset="54%"></stop>
            <stop stop-color="#808080" stop-opacity="0.1" offset="100%"></stop>
        </linearGradient>
    </defs>
    <g id="Desktop-HD" stroke="none" stroke-width="1" fill="none" fill-rule="evenodd" transform="translate(-838.000000, -1280.000000)">
        <g id="record-transaction" transform="translate(838.000000, 1280.000000)">
            <mask id="mask-2" fill="white">
                <use xlink:href="#path-1"></use>
            </mask>
            <use id="Mask" fill="#C0A8F7" xlink:href="#path-1"></use>
            <g id="undraw_finance_0bdk" mask="url(#mask-2)">
                <g transform="translate(-30.000000, 18.000000)">
                    <path d="M36.7136554,55.6269292 C27.7668062,52.5411143 17.5371824,49.9290873 9.17820699,54.3634947 C8.11879333,54.9255372 7.07489085,55.6331225 6.50407939,56.6859846 C4.99639261,59.4559408 7.39287006,63.0480585 6.22487814,65.9759441 C5.05688621,68.9038297 0.661017532,70.3778366 1.02087693,73.5054564 C1.11549513,74.3229728 1.55911491,75.0630729 2.08184171,75.7009835 C5.356252,79.6941177 11.359079,80.098231 16.4327863,79.107302 C21.5064936,78.1163729 26.4685204,76.0617436 31.6337436,76.3203141 C36.5973215,76.575788 41.1638132,78.9524693 45.7116915,80.9529073 C53.3788682,84.3344525 62.333473,86.7606803 69.9944452,83.3621034 C73.5046255,81.8044869 76.4067674,79.1522034 79.7664892,77.3004048 C84.2941715,74.8278323 89.4985456,73.8745999 94.6106894,74.5815433 C98.0231492,75.0615246 101.280497,76.2692193 104.620054,77.102219 C112.205022,78.9927258 120.121929,78.9307927 127.938013,78.8564731 C129.392962,78.8425381 130.871177,78.8255065 132.265632,78.410555 C134.33017,77.7912244 136.033298,76.3652156 137.67283,74.9701733 C139.827333,73.138503 142.096619,71.1256784 142.79152,68.3866886 C143.612061,65.1352028 141.913587,61.6793378 139.394571,59.4698758 C136.875555,57.2604137 133.655434,56.052719 130.512869,54.8883774 C129.73731,54.6034853 128.909013,54.3139482 128.11484,54.5291656 C127.593665,54.6716117 127.154698,55.0184368 126.765367,55.3915835 C124.53486,57.5344675 122.650251,61.1591001 119.608509,60.5769293 C118.522726,60.3694535 117.633935,59.6154185 116.774616,58.9186715 C112.186408,55.2026877 106.01451,52.3336385 100.477018,54.3867196 C96.4270487,55.8885964 93.568338,59.7454779 89.4640795,61.106457 C86.5448753,62.0757094 83.3728388,61.6561129 80.301625,61.8450088 C75.8344048,62.1175143 71.4866208,63.6937107 67.0131962,63.5977145 C55.6062738,63.3530789 46.1025732,52.4652463 34.7421843,53.5026251 C33.8518425,53.5831381 32.8808426,53.7875172 32.334849,54.4904575" id="Shape" stroke="none" fill="#6C63FF" fill-rule="nonzero" opacity="0.5"></path>
                    <path d="M22.5313077,45.7914662 C22.5313077,45.7914662 13.180193,51.384816 30.424132,60 C30.424132,60 34.223644,53.010208 30.0232169,47.3107225 C28.3360992,45.0122817 25.1808512,44.3270771 22.6782078,45.715655 L22.5313077,45.7914662 Z" id="Shape" stroke="none" fill="#6C63FF" fill-rule="nonzero"></path>
                    <path d="M141.711389,40.9941613 C143.611782,48.0106576 135.505176,68 135.505176,68 C135.505176,68 118.447686,54.9605073 116.545757,47.9440109 C115.19145,43.3644774 116.399738,38.4035367 119.703147,34.9805236 C123.006557,31.5575105 127.886931,30.2093424 132.456106,31.4576109 C137.025281,32.7058795 140.566557,36.3547874 141.709854,40.9926113 L141.711389,40.9941613 Z" id="Shape" stroke="none" fill="#6C63FF" fill-rule="nonzero"></path>
                    <path d="M141.711389,40.9941613 C143.611782,48.0106576 135.505176,68 135.505176,68 C135.505176,68 118.447686,54.9605073 116.545757,47.9440109 C115.19145,43.3644774 116.399738,38.4035367 119.703147,34.9805236 C123.006557,31.5575105 127.886931,30.2093424 132.456106,31.4576109 C137.025281,32.7058795 140.566557,36.3547874 141.709854,40.9926113 L141.711389,40.9941613 Z" id="Shape" stroke="none" fill="#000000" fill-rule="nonzero" opacity="0.1"></path>
                    <path d="M126,31 C126,31 136.7614,47.0797331 135.957057,67" id="Shape" stroke="#535461" stroke-width="1" fill="none"></path>
                    <path d="M144.912631,53.6580472 C144.912631,53.6580472 134.836002,48.3292066 136.111647,68 C136.111647,68 144.517406,67.7079446 147.500872,61.0422085 C148.708327,58.3588879 147.65976,55.2217453 145.060439,53.7408223 L144.912631,53.6580472 Z" id="Shape" stroke="none" fill="#6C63FF" fill-rule="nonzero"></path>
                    <path d="M145,53 C145,53 143.693782,62.9914856 136,67" id="Shape" stroke="#535461" stroke-width="1" fill="none"></path>
                    <path d="M121.11881,59.4332659 L111.168885,59.4332659 C111.397825,58.9699389 111.516582,58.4593978 111.515778,57.9419596 L111.515778,12.3519329 C111.515778,10.5007115 110.024395,9 108.184682,9 L31.1668464,9 C29.3271332,9 27.8357511,10.5007115 27.8357511,12.3519329 L27.8357511,57.943518 C27.8349471,58.4609562 27.9537039,58.9714973 28.1826434,59.4348242 L17.8811807,59.4348242 C17.6466731,59.4348209 17.4218375,59.5288803 17.2564522,59.6961776 C17.0910668,59.8634749 16.9987758,60.0902084 17.0000123,60.3261797 L17.0000123,61.0414457 C17.0000123,63.7799796 19.2062318,66 21.9277414,66 L117.072249,66 C118.379164,66 119.632551,65.4775824 120.55668,64.5476731 C121.480808,63.6177637 121.999978,62.356536 121.999978,61.0414457 L121.999978,60.3261797 C122.001629,60.0899392 121.909521,59.8628039 121.74409,59.6951685 C121.57866,59.5275331 121.353587,59.4332601 121.11881,59.4332659 Z M59.81024,62.2693969 L58.9523009,61.2954508 L80.1344126,61.2954508 L79.1897505,62.2709552 L59.81024,62.2693969 Z" id="Shape" stroke="none" fill="url(#linearGradient-3)" fill-rule="nonzero"></path>
                    <rect id="Rectangle-path" stroke="none" fill="#535461" fill-rule="nonzero" x="28" y="9" width="82" height="51" rx="23.26"></rect>
                    <rect id="Rectangle-path" stroke="none" fill="#FFFFFF" fill-rule="nonzero" x="30" y="17" width="78" height="41"></rect>
                    <circle id="Oval" stroke="none" fill="#FFFFFF" fill-rule="nonzero" cx="69.5" cy="12.5" r="1"></circle>
                    <path d="M81.7000272,58 L79.0047988,60.5945552 L60.0014185,60.5945552 L57.5657652,58 L18.8642139,58 C18.3869218,58 18,58.3630477 18,58.8108896 L18,59.4642684 C18,61.9692838 20.1642566,64 22.8340024,64 L116.165998,64 C117.448055,64 118.677602,63.5221296 119.584153,62.671515 C120.490705,61.8209003 121,60.6672192 121,59.4642684 L121,58.8108896 C121,58.3630477 120.613078,58 120.135786,58 L81.7000272,58 Z" id="Shape" stroke="none" fill="#535461" fill-rule="nonzero"></path>
                    <polyline id="Shape" stroke="#535461" stroke-width="2" fill="none" points="40 19 40 54 98 54"></polyline>
                    <rect id="Rectangle-path" stroke="none" fill="#6C63FF" fill-rule="nonzero" opacity="0.5" x="45" y="44" width="6" height="9"></rect>
                    <rect id="Rectangle-path" stroke="none" fill="#6C63FF" fill-rule="nonzero" opacity="0.7" x="56" y="36" width="6" height="18"></rect>
                    <rect id="Rectangle-path" stroke="none" fill="#6C63FF" fill-rule="nonzero" opacity="0.5" x="66" y="40" width="6" height="13"></rect>
                    <rect id="Rectangle-path" stroke="none" fill="#6C63FF" fill-rule="nonzero" opacity="0.8" x="76" y="33" width="6" height="20"></rect>
                    <rect id="Rectangle-path" stroke="none" fill="#6C63FF" fill-rule="nonzero" x="87" y="26" width="6" height="27"></rect>
                    <polyline id="Shape" stroke="#535461" stroke-width="2" fill="none" points="48 38 58.4205516 28.3301048 68.6705516 37.4718324 78.75 26.3961257 89 22"></polyline>
                    <circle id="Oval" stroke="none" fill="#6C63FF" fill-rule="nonzero" cx="48" cy="38" r="1"></circle>
                    <circle id="Oval" stroke="none" fill="#6C63FF" fill-rule="nonzero" cx="69" cy="37" r="1"></circle>
                    <circle id="Oval" stroke="none" fill="#6C63FF" fill-rule="nonzero" cx="79" cy="27" r="1"></circle>
                    <circle id="Oval" stroke="none" fill="#6C63FF" fill-rule="nonzero" cx="59" cy="28" r="1"></circle>
                    <circle id="Oval" stroke="none" fill="#6C63FF" fill-rule="nonzero" cx="89" cy="22" r="1"></circle>
                    <path d="M134.420743,59.2494717 C133.783181,59.0420855 132.837724,58.8024392 132.0882,58.8869299 C131.374442,58.6303855 129.696567,57.9652134 128.550511,56.9636148 C128.583556,55.9788012 128.558114,54.9929205 128.474314,54.0110497 C127.888069,47.4253854 129.206733,43.0841008 129.206733,43.0841008 C129.206733,43.0841008 130.242382,39.7720662 130.128865,37.0238149 C130.195731,37.1482466 130.233051,37.221984 130.233051,37.221984 C130.323243,34.8516364 131.141188,32.3983344 131.753869,30.8698212 C131.777233,30.863229 131.800097,30.8550155 131.82229,30.8452421 L132.506503,29.2414554 C132.561018,29.1479058 132.604332,29.0484085 132.63557,28.9449699 L132.745977,28.6914979 L132.713322,28.6776722 C132.724207,28.6361949 132.735092,28.5916453 132.745977,28.5470957 C133.18294,26.7205608 133.523491,22.3884934 133.523491,22.3884934 C134.695983,17.8290692 131.912482,15.0147615 131.912482,15.0147615 L127.188306,10.99915 C127.211821,11.0514239 127.227535,11.1067915 127.234957,11.1635228 L127.196081,11.1297265 C127.129215,10.9407746 127.056129,10.7149541 126.984597,10.4568735 C127.151226,10.3386735 127.3073,10.20659 127.451106,10.0620716 C127.988244,9.56094925 128.357705,8.9097631 128.51008,8.19559572 C128.601693,7.63711252 128.625186,7.06979166 128.580056,6.50578217 L128.502305,4.56864137 C128.498772,4.18952538 128.45973,3.81154593 128.385678,3.43953867 C128.029576,1.90334454 126.435672,0.82800864 124.835548,0.75734371 C124.326426,0.754415053 123.81757,0.78108853 123.311621,0.837225805 C122.897864,0.870805156 122.482425,0.879526314 122.067598,0.863341105 C122.020362,0.865813187 121.973546,0.85344445 121.933866,0.82800864 C121.897854,0.792525062 121.877222,0.744598142 121.876329,0.69435975 C121.85982,0.512669757 121.919392,0.332232323 122.041162,0.195096655 C122.103752,0.140863885 122.176725,0.0995954789 122.255756,0.0737373186 L122.142239,0.0998526189 C122.198191,0.0562542778 122.261311,0.0224785823 122.328843,0 C121.914064,0.0720441491 121.515183,0.215004094 121.150131,0.422453388 C121.049549,0.487735308 120.957157,0.564569365 120.874891,0.651346314 C120.657452,0.839827767 120.516111,1.09945155 120.476804,1.38257472 C120.281992,1.22007394 120.136648,1.00735635 120.056946,0.768097069 C120.032192,0.670261564 120.032192,0.567910911 120.056946,0.470075406 C120.028956,0.503871677 120.002002,0.538692078 119.976085,0.574536607 C119.976085,0.563783248 119.976085,0.55302989 119.976085,0.542276531 C119.675573,0.907189492 119.462886,1.33476535 119.354074,1.79273856 C119.269531,1.69256193 119.229198,1.56306921 119.242112,1.43326913 C119.218786,1.50547025 119.197016,1.57767138 119.1768,1.6498725 C119.169739,1.60199118 119.169739,1.55335158 119.1768,1.50547025 C118.993704,2.05929499 118.911055,2.64071243 118.932661,3.2229353 C118.932661,3.80361668 119.193906,4.70843503 119.823692,4.91274885 C119.856348,4.92350221 119.889003,4.93118318 119.923214,4.93886415 C119.203775,6.04293252 119.093914,7.43019831 119.630797,8.63136229 C120.167679,9.83252628 121.27948,10.6868945 122.590087,10.9054422 C122.600454,10.9761071 122.610303,11.0503565 122.619633,11.1281903 L122.644513,11.1281903 C122.661619,11.2818097 122.675614,11.4507911 122.684944,11.6228448 C122.526002,11.7766819 122.352026,11.9145885 122.165565,12.0345449 C121.636869,12.3432954 121.047136,12.5360952 120.436373,12.5998643 C119.707019,12.6563964 118.998244,12.8658776 118.357301,13.214342 C117.603112,13.6306506 116.771172,14.2374473 116.509927,14.9748205 C116.074519,16.2037758 113.676665,18.1163375 112.068766,18.3544476 L111.496516,18.3221875 L111.45453,18.3098979 L111.45453,18.3206513 L111.314577,18.3129703 L111.306802,18.3129703 L111.269482,18.3129703 L111.269482,18.3206513 L111.124864,18.3129703 C111.124864,18.3129703 111.110869,18.3790267 111.090653,18.4957774 C110.282039,18.2207987 108.563732,17.4588464 106.327602,15.454113 C103.839557,13.2220229 100.47292,13.6613745 99.1744717,13.942498 C99.0840178,13.9622117 99.0154082,14.0352532 99.00226,14.1258337 C98.9891119,14.2164143 99.0341794,14.3055592 99.1153806,14.3495894 C99.6394252,14.6337854 100.45115,15.0470216 100.825912,15.0931074 C100.825912,15.0931074 100.048398,15.8965369 100.875673,16.3220627 C101.078013,16.4187068 101.318052,16.3955865 101.497684,16.2621511 C101.898881,15.9718104 103.013837,16.6293015 104.629511,16.9718728 C104.629511,16.9718728 109.188854,21.6326858 111.452975,22.3485523 C111.505146,22.4503361 111.562763,22.5493046 111.625583,22.6450378 L111.765536,22.6342844 L111.765536,22.6450378 L111.824627,22.6450378 L111.841732,22.7986572 C111.841732,22.7986572 115.362316,22.6158501 116.506817,21.3530985 C116.587851,21.281424 116.662267,21.2027679 116.729186,21.1180608 L115.505379,36.3263828 L115.516264,36.3263828 L115.505379,36.470785 L116.40574,36.470785 C116.482784,38.3412322 116.401119,40.214768 116.161601,42.0717488 L116.161601,51.9863458 C116.161601,51.9863458 116.11495,52.8589041 117.949883,54.1370176 C119.873773,55.4602171 121.727726,56.8799878 123.504444,58.3907392 L123.726813,58.5812272 C123.389372,61.6152107 122.683389,67.2699413 122.094033,67.4803999 L122.45791,67.5433838 C121.835899,68.3222343 120.069387,70.4621527 119.531347,70.5189919 C118.872015,70.591193 118.431942,71.6050811 119.531347,71.8216845 C121.726546,72.1970791 123.983708,71.9772822 126.062466,71.1857001 C126.489095,71.0194251 126.745813,70.5870215 126.684477,70.1380157 L126.471438,68.5403738 C126.511772,68.5625176 126.544317,68.5962769 126.56474,68.6371541 C126.710912,69.071897 126.56474,68.0580089 126.56474,68.0580089 C127.16715,66.1452644 127.6404,64.1951334 127.98137,62.2204712 L130.15841,64.0792661 C130.15841,64.0792661 130.201951,64.0254993 130.278147,63.9256466 C130.811522,65.1208057 131.763199,67.5664268 131.55016,69.3576291 C131.257815,71.8155397 134.038206,69.6464336 133.747415,68.1993387 C133.511051,67.0287588 134.56847,62.0668517 134.980553,60.2111292 C135.072552,59.795979 134.830234,59.3797177 134.420743,59.2494717 Z" id="Shape" stroke="none" fill="url(#linearGradient-4)" fill-rule="nonzero"></path>
                    <path d="M111.217095,19.077208 C111.217095,19.077208 109.157143,18.7045687 106.102733,15.7979815 C103.686073,13.4989585 100.426284,13.9509863 99.1693125,14.240997 C99.0815899,14.2608869 99.0149225,14.33594 99.0021821,14.4291499 C98.9894416,14.5223598 99.0333182,14.6140461 99.1121774,14.6590011 C99.6202164,14.950632 100.407754,15.376737 100.776816,15.4253421 C100.776816,15.4253421 100.015529,16.2516294 100.824686,16.6939362 C101.022273,16.7957533 101.257699,16.77193 101.433097,16.6323697 C101.822234,16.3342582 102.903168,17.0114897 104.470522,17.3630669 C104.470522,17.3630669 110.579344,23.9960479 112,22.871649 L111.217095,19.077208 Z" id="Shape" stroke="none" fill="#FEC3BE" fill-rule="nonzero"></path>
                    <path d="M122,11.245283 C122,11.245283 122.588235,13.8113208 122,15.6226415 L124.647059,16 L127,14.7924528 L127,13.2075472 C127,13.2075472 125.897059,10.7924528 126.191176,8 L122,11.245283 Z" id="Shape" stroke="none" fill="#FEC3BE" fill-rule="nonzero"></path>
                    <path d="M130,63.1075268 C130,63.1075268 131.88771,66.6082944 131.591969,68.9421394 C131.296228,71.2759844 134.052284,69.2167094 133.762835,67.8438594 C133.528445,66.7336416 134.572978,62.0241691 134.980408,60.2722931 C135.071886,59.8801081 134.835235,59.4859686 134.432973,59.3605417 C133.563053,59.0889561 132.10637,58.7561892 131.374882,59.265039 C130.294168,60.0186143 130,63.1075268 130,63.1075268 Z" id="Shape" stroke="none" fill="#8B416F" fill-rule="nonzero"></path>
                    <path d="M122.900582,67.2190095 C122.900582,67.2190095 120.356879,70.4311489 119.683546,70.504152 C119.010213,70.5771552 118.561325,71.5991995 119.683546,71.818209 C121.924243,72.1987544 124.228754,71.9793682 126.35182,71.1833989 C126.789083,71.0169575 127.053081,70.5804047 126.990999,70.12644 L126.561627,67 L122.900582,67.2190095 Z" id="Shape" stroke="none" fill="#8B416F" fill-rule="nonzero"></path>
                    <path d="M118.373605,34 L116.028248,34.3084674 C116.350158,37.0106511 116.340709,39.7412585 116.000104,42.4412112 L116.000104,52.1579353 C116.000104,52.1579353 115.954761,53.0139324 117.755995,54.2585985 C119.644824,55.5538996 121.465123,56.9438256 123.209731,58.4229088 L129.736078,64 C129.736078,64 132.325352,60.8783096 131.96573,59.0336744 C131.96573,59.0336744 127.650274,57.6856717 127.074879,55.4862989 C126.744966,54.2277518 125.071945,53.1727932 123.702256,52.5095882 C121.928217,51.6597642 120.994214,49.7054121 121.458531,47.8147139 C121.538515,47.4958352 121.66213,47.1891799 121.825971,46.9031926 C122.976759,44.9166624 124.631017,40.4469693 124.631017,40.4469693 L121.466349,34.4966326 L118.373605,34 Z" id="Shape" stroke="none" fill="#4D4981" fill-rule="nonzero"></path>
                    <path d="M118.373605,34 L116.028248,34.3084674 C116.350158,37.0106511 116.340709,39.7412585 116.000104,42.4412112 L116.000104,52.1579353 C116.000104,52.1579353 115.954761,53.0139324 117.755995,54.2585985 C119.644824,55.5538996 121.465123,56.9438256 123.209731,58.4229088 L129.736078,64 C129.736078,64 132.325352,60.8783096 131.96573,59.0336744 C131.96573,59.0336744 127.650274,57.6856717 127.074879,55.4862989 C126.744966,54.2277518 125.071945,53.1727932 123.702256,52.5095882 C121.928217,51.6597642 120.994214,49.7054121 121.458531,47.8147139 C121.538515,47.4958352 121.66213,47.1891799 121.825971,46.9031926 C122.976759,44.9166624 124.631017,40.4469693 124.631017,40.4469693 L121.466349,34.4966326 L118.373605,34 Z" id="Shape" stroke="none" fill="#000000" fill-rule="nonzero" opacity="0.05"></path>
                    <path d="M122.252097,67.7430879 C122.252097,67.7430879 126.415714,68.4615365 126.556854,68.8926056 C126.697993,69.3236748 126.556854,68.3178467 126.556854,68.3178467 C126.556854,68.3178467 128.956226,60.9178263 128.397804,54.381506 C127.839383,47.8451857 129.103502,43.5329324 129.103502,43.5329324 C129.103502,43.5329324 130.585468,38.647482 129.73863,35.8455325 C128.891793,33.043583 120,34.2649456 120,34.2649456 C120,34.2649456 123.105071,41.664966 123.034501,45.1853641 C123.034501,45.1853641 123.38735,55.8184032 124.022478,57.0397658 C124.016341,57.0335184 123.028364,67.4510229 122.252097,67.7430879 Z" id="Shape" stroke="none" fill="#4D4981" fill-rule="nonzero"></path>
                    <path d="M122.313694,12 C122.313694,12 122.739722,14.6113095 127,13.4838382 L124.165989,34.9626267 C124.165989,34.9626267 115.929452,35.2452625 116.000456,34.256037 L117.698393,21.2563241 L122.313694,12 Z" id="Shape" stroke="none" fill="#FFFFFF" fill-rule="nonzero"></path>
                    <path d="M122.993772,12 C122.434173,12.5404403 121.705167,12.8799931 120.924558,12.9637879 C120.21154,13.0173949 119.518349,13.2194236 118.891154,13.5564183 C118.154706,13.9611786 117.334183,14.5492268 117.085067,15.2655763 C116.583723,16.6707822 113.432413,18.9893719 112,18.4975498 L112.501345,22.7131674 C112.501345,22.7131674 116.583723,22.5023866 117.299929,20.9566601 L116.083935,36 L117.158245,36 C117.158245,36 117.73121,31.9249029 118.160934,31.0817794 C118.590658,30.2386559 119.450106,25.6014765 119.521727,24.4773118 C119.593347,23.3531471 120.667657,16.8892 121.598726,15.7711449 L123,12.4337809 L122.993772,12 Z" id="Shape" stroke="none" fill="#000000" fill-rule="nonzero" opacity="0.1"></path>
                    <path d="M122,13 C121.36773,13.4927244 120.611672,13.8028145 119.814457,13.89638 C119.11041,13.9513195 118.426184,14.1550352 117.807327,14.4939667 C117.079838,14.9000192 116.269295,15.4899445 116.02321,16.2085807 C115.527964,17.6182724 112.414989,19.9442636 111,19.4508715 L111.495246,23.6799464 C111.495246,23.6799464 115.527964,23.4684926 116.235459,21.9178318 L115.032718,37 L116.09396,37 C116.09396,37 116.659955,32.9118943 117.084452,32.0660793 C117.508949,31.2202643 118.357942,26.5682819 118.428691,25.4405286 C118.499441,24.3127753 119.560682,17.8281938 120.480425,16.7065696 L122,13.4213752 L122,13 Z" id="Shape" stroke="none" fill="#000000" fill-rule="nonzero" opacity="0.1"></path>
                    <path d="M121.998462,12 C121.366369,12.4925986 120.610522,12.8026095 119.813531,12.8961511 C119.109384,12.9499155 118.424817,13.1525374 117.805424,13.4905215 C117.078138,13.8964703 116.267822,14.486245 116.021806,15.2046978 C115.526698,16.6140295 112.414593,18.9394268 111,18.4461607 L111.495108,22.6741559 C111.495108,22.6741559 115.526698,22.4627561 116.233995,20.9124912 L115.033128,36 L116.094073,36 C116.094073,36 116.659911,31.912938 117.084289,31.067339 C117.508666,30.22174 118.357422,25.5709453 118.428152,24.4434799 C118.498882,23.3160146 119.559827,16.8330887 120.479312,15.7117508 L122,12.4350546 L121.998462,12 Z" id="Shape" stroke="none" fill="#FD6F8D" fill-rule="nonzero"></path>
                    <path d="M125.824561,9.82758598 C125.733028,9.1739129 125.916095,8.76611685 126,8 L122,10.9655169 C122,10.9655169 122.09611,11.3658167 122.169336,11.9520235 C122.371107,11.9840587 122.575171,12.0001024 122.779558,11.9999995 C124.167811,11.9999995 125.167048,10.9340326 125.824561,9.82758598 Z" id="Shape" stroke="none" fill="#000000" fill-rule="nonzero" opacity="0.1"></path>
                    <circle id="Oval" stroke="none" fill="#FEC3BE" fill-rule="nonzero" cx="123" cy="8" r="4"></circle>
                    <path d="M119.003399,3.96504739 C118.979562,3.34463357 119.081285,2.72576472 119.302585,2.14484597 C119.175461,2.33384524 119.208665,2.5867253 119.380373,2.73726303 C119.500157,2.10413228 119.828407,1.52812051 120.313832,1.09922986 C120.049053,1.14218009 119.912923,1.46652844 119.978744,1.72422986 C120.068157,1.97593873 120.227305,2.19765866 120.437994,2.36404028 C120.415555,1.97452607 120.675846,1.61018957 121.00495,1.39691943 C121.34784,1.2019185 121.722445,1.06760073 122.111937,1 C121.837299,1.09651936 121.662831,1.36413272 121.687094,1.65165877 C121.688253,1.69916259 121.708115,1.74433752 121.742443,1.77754739 C121.779824,1.80122504 121.823796,1.81262686 121.868101,1.81013033 C122.255705,1.82491976 122.643857,1.81651187 123.030437,1.78495261 C123.505728,1.73199138 123.983755,1.70677005 124.46204,1.70941943 C125.957967,1.77162322 127.461375,2.78317536 127.796463,4.22719194 C127.865907,4.57756248 127.902463,4.93354213 127.905665,5.29058057 L127.978966,7.11374408 C128.021536,7.64563814 127.999437,8.18066895 127.913145,8.70734597 C127.703365,9.69176632 127.061141,10.5323046 126.161413,11 C125.621384,10.2254147 125.573514,9.23015403 125.386523,8.30746445 C125.357016,8.09453389 125.27705,7.89153411 125.153158,7.71504739 C125.022037,7.53618701 124.791024,7.45895885 124.577226,7.52251185 C124.375276,7.60248815 124.288512,7.90758294 124.456056,8.04383886 C124.306463,8.2186019 124.026725,8.08827014 123.857685,7.93276066 C123.385617,7.4893911 123.060631,6.91457586 122.925722,6.28436019 C122.858405,5.96741706 122.791088,5.5764218 122.476943,5.46830569 C122.368874,5.43890269 122.25593,5.43134729 122.144847,5.44609005 C121.489631,5.49052133 120.464921,5.75859005 119.830647,5.55272512 C119.248731,5.3646327 119.003399,4.51155213 119.003399,3.96504739 Z" id="Shape" stroke="none" fill="#000000" fill-rule="nonzero" opacity="0.1"></path>
                    <path d="M119.003399,3.96504739 C118.979562,3.34463357 119.081285,2.72576472 119.302585,2.14484597 C119.175461,2.33384524 119.208665,2.5867253 119.380373,2.73726303 C119.500157,2.10413228 119.828407,1.52812051 120.313832,1.09922986 C120.049053,1.14218009 119.912923,1.46652844 119.978744,1.72422986 C120.068157,1.97593873 120.227305,2.19765866 120.437994,2.36404028 C120.415555,1.97452607 120.675846,1.61018957 121.00495,1.39691943 C121.34784,1.2019185 121.722445,1.06760073 122.111937,1 C121.837299,1.09651936 121.662831,1.36413272 121.687094,1.65165877 C121.688253,1.69916259 121.708115,1.74433752 121.742443,1.77754739 C121.779824,1.80122504 121.823796,1.81262686 121.868101,1.81013033 C122.255705,1.82491976 122.643857,1.81651187 123.030437,1.78495261 C123.505728,1.73199138 123.983755,1.70677005 124.46204,1.70941943 C125.957967,1.77162322 127.461375,2.78317536 127.796463,4.22719194 C127.865907,4.57756248 127.902463,4.93354213 127.905665,5.29058057 L127.978966,7.11374408 C128.021536,7.64563814 127.999437,8.18066895 127.913145,8.70734597 C127.703365,9.69176632 127.061141,10.5323046 126.161413,11 C125.621384,10.2254147 125.573514,9.23015403 125.386523,8.30746445 C125.357016,8.09453389 125.27705,7.89153411 125.153158,7.71504739 C125.022037,7.53618701 124.791024,7.45895885 124.577226,7.52251185 C124.375276,7.60248815 124.288512,7.90758294 124.456056,8.04383886 C124.306463,8.2186019 124.026725,8.08827014 123.857685,7.93276066 C123.385617,7.4893911 123.060631,6.91457586 122.925722,6.28436019 C122.858405,5.96741706 122.791088,5.5764218 122.476943,5.46830569 C122.368874,5.43890269 122.25593,5.43134729 122.144847,5.44609005 C121.489631,5.49052133 120.464921,5.75859005 119.830647,5.55272512 C119.248731,5.36315166 119.003399,4.51155213 119.003399,3.96504739 Z" id="Shape" stroke="none" fill="#784F69" fill-rule="nonzero"></path>
                    <path d="M111.120872,19 C111.120872,19 110.667129,21.4637681 111.517898,23 L112,22.9536232 L111.737371,19.0405797 L111.120872,19 Z" id="Shape" stroke="none" fill="#000000" fill-rule="nonzero" opacity="0.1"></path>
                    <path d="M111.120872,19 C111.120872,19 110.667129,21.4637681 111.517898,23 L112,22.9536232 L111.737371,19.0405797 L111.120872,19 Z" id="Shape" stroke="none" fill="#FD6F8D" fill-rule="nonzero"></path>
                    <path d="M126.781003,12 L131.216662,15.8871595 C131.216662,15.8871595 133.829919,18.618677 132.7296,23.0311284 C132.7296,23.0311284 132.248211,29.4747082 131.698052,29.7548638 C131.698052,29.7548638 129.772494,33.6770428 129.634955,37.3891051 C129.634955,37.3891051 127.056083,32.1011673 125.886995,35.3229572 C124.717906,38.5447471 122,39 122,39 L123.512938,19.943326 C123.512938,19.943326 127.331163,13.1845711 126.781003,12 Z" id="Shape" stroke="none" fill="#000000" fill-rule="nonzero" opacity="0.1"></path>
                    <path d="M126.781003,12 L131.216662,15.8869403 C131.216662,15.8869403 133.829919,18.6183038 132.7296,23.0305064 C132.7296,23.0305064 132.248211,29.4737228 131.698052,29.7538626 C131.698052,29.7538626 129.772494,33.6758205 129.634955,37.3876734 C129.634955,37.3876734 126.918543,31.819894 125.74796,35.0415022 C124.577376,38.2631104 122,39 122,39 L123.512938,19.9520131 C123.512938,19.9520131 127.331163,13.1845043 126.781003,12 Z" id="Shape" stroke="none" fill="#FD6F8D" fill-rule="nonzero"></path>
                    <path d="M129.052632,28.1437505 C129.052632,28.1437505 130.175439,27.3406487 132,29.5309263 L127.508772,38 L126,35.6303735 C126,35.6303735 129.192982,29.0928708 129.052632,28.1437505 Z" id="Shape" stroke="none" fill="#FEC3BE" fill-rule="nonzero"></path>
                    <path d="M128,29.3317424 C128,29.3317424 130.284111,32.4448179 131.175026,31.9458402 L132,29.6144396 L128.903543,28 L128,29.3317424 Z" id="Shape" stroke="none" fill="#000000" fill-rule="nonzero" opacity="0.1"></path>
                    <path d="M128,29.3317424 C128,29.3317424 130.284111,32.4448179 131.175026,31.9458402 L132,29.6144396 L128.903543,28 L128,29.3317424 Z" id="Shape" stroke="none" fill="#FD6F8D" fill-rule="nonzero"></path>
                    <path d="M126.38806,35 C126.38806,35 127.43962,37.6801688 128,37.835443 L127.185889,39 L126,36.2050633 L126.38806,35 Z" id="Shape" stroke="none" fill="#000000" fill-rule="nonzero" opacity="0.1"></path>
                    <path d="M126.390244,35 C126.390244,35 127.440379,37.6801688 128,37.835443 L127.186992,39 L126,36.2 L126.390244,35 Z" id="Shape" stroke="none" fill="#4D4981" fill-rule="nonzero"></path>
                    <path d="M128.482143,20 C128.482143,20 128.642857,25.0909091 128,27" id="Shape" stroke="none" fill="#000000" fill-rule="nonzero" opacity="0.1"></path>
                    <path d="M117,21 C117,21 118,20.7142857 118,20" id="Shape" stroke="none" fill="#000000" fill-rule="nonzero" opacity="0.1"></path>
                </g>
            </g>
        </g>
    </g>
</svg>